<svg xmlns="http://www.w3.org/2000/svg" xmlns:xlink="http://www.w3.org/1999/xlink" viewBox="0 0 33.56 19.58">
  <defs>
    <style>
      .cls-1 {
        fill: none;
      }

      .cls-2 {
        clip-path: url(#clip-path);
      }

      .cls-3 {
        fill: #e1001f;
      }

      .cls-4 {
        fill: #f6d928;
      }

      .cls-5 {
        fill: #f6d728;
      }

      .cls-6 {
        fill: #ca001c;
      }

      .cls-7 {
        fill: #f0f7ff;
      }
    </style>
    <clipPath id="clip-path">
      <rect class="cls-1" width="33.56" height="19.58"/>
    </clipPath>
  </defs>
  <g id="Layer_2" data-name="Layer 2">
    <g id="_4" data-name="4">
      <g id="GERMANY">
        <g class="cls-2">
          <rect width="33.56" height="6.52"/>
          <rect class="cls-3" y="6.52" width="33.56" height="6.53"/>
          <rect class="cls-4" y="13.05" width="33.56" height="6.53"/>
          <g class="cls-2">
            <path class="cls-5" d="M12.14,4.63v7.84c0,2.93,3.94,2.58,4.64,3.75.71-1.17,4.65-.82,4.65-3.75V4.63Z"/>
            <path d="M16.78,16.28l0,0c-.25-.42-.92-.63-1.68-.89-1.32-.44-3-1-3-2.88V4.61h9.35v7.86c0,1.89-1.65,2.44-3,2.88-.76.26-1.42.47-1.67.89l0,0ZM12.16,4.66v7.81c0,1.85,1.56,2.37,2.94,2.83a3.34,3.34,0,0,1,1.68.87,3.33,3.33,0,0,1,1.69-.87c1.37-.46,2.93-1,2.93-2.83V4.66Z"/>
            <path d="M16.48,5.76a2.1,2.1,0,0,1-.17,1,2.08,2.08,0,0,0-.44.88,27.15,27.15,0,0,0,.91,6.15,27.18,27.18,0,0,0,.92-6.15,7,7,0,0,0-.36-2.22Z"/>
            <path class="cls-6" d="M16.57,6a3.07,3.07,0,0,1-1.1-.26,1.46,1.46,0,0,0,.84.37Z"/>
            <path d="M16.32,6.12a1.36,1.36,0,0,1-.86-.35A4.17,4.17,0,0,0,16.57,6V6a3.13,3.13,0,0,1-1.11-.26,1.86,1.86,0,0,0,.86.35Z"/>
            <path class="cls-6" d="M16.43,5.05c-.7-.35-1.13,0-.66.69.05-.12.49-.29.71.28a1.61,1.61,0,0,1-.78,0,1.47,1.47,0,0,0,1,.12c.12-.07-.21-.66-.21-.66Z"/>
            <path d="M16.4,6.21a1.38,1.38,0,0,1-.71-.16,1.72,1.72,0,0,0,.78,0A.52.52,0,0,0,16,5.63h0a.27.27,0,0,0-.24.11c-.24-.28-.29-.55-.16-.7s.45-.17.81,0l0,0c-.33-.17-.63-.18-.76,0s-.08.4.12.67c0,0,.12-.11.25-.11s.33,0,.46.4a1.37,1.37,0,0,1-.79,0,1.58,1.58,0,0,0,1,.09c.07,0-.1-.41-.22-.63.08.08.36.59.23.66a.58.58,0,0,1-.27,0Z"/>
            <path d="M17.3,5.55a1,1,0,0,0,.44-.23,2.9,2.9,0,0,1-.91-.24c-.19-.1-.52-.3-.52.09s.43.71.35,1Z"/>
            <path class="cls-7" d="M16.71,5.29s-.23-.12-.28-.16-.12.25.09.35a.39.39,0,0,1,.19-.19Z"/>
            <path d="M16.55,5.15c-.11,0-.14.12-.07.26,0-.11.09-.18.23-.21Z"/>
            <path d="M17.81,8.34v2.77L21,13.69V6.81a1.35,1.35,0,0,0-.33-1.07V7.17Z"/>
            <polygon class="cls-5" points="18.45 13.38 18.36 13.38 18.36 7.52 18.45 7.52 18.45 13.38 18.45 13.38"/>
            <polygon class="cls-5" points="19.1 13.38 19.02 13.38 19.02 7.52 19.1 7.52 19.1 13.38 19.1 13.38"/>
            <polygon class="cls-5" points="19.76 13.38 19.67 13.38 19.67 7.52 19.76 7.52 19.76 13.38 19.76 13.38"/>
            <polygon class="cls-5" points="20.42 13.38 20.33 13.38 20.33 7.52 20.42 7.52 20.42 13.38 20.42 13.38"/>
            <path d="M17.2,8.86c2.12,0,3-.68,3.45-1.2V5.76A.51.51,0,0,0,21,5.24c-.66.54-1.69-.72-2.3.59.33.66,1,.59,1.22.21.47.4.09,1.9-2.75,1.88Z"/>
            <path class="cls-6" d="M18,13.45a.3.3,0,0,0,.12.48.39.39,0,0,1,.07-.4Z"/>
            <path d="M18.11,13.92a.27.27,0,0,1-.21-.21.29.29,0,0,1,.07-.26h0a.32.32,0,0,0-.07.24.35.35,0,0,0,.18.21.35.35,0,0,1,0-.39.56.56,0,0,0,0,.4Z"/>
            <path class="cls-6" d="M18.8,14.25a.53.53,0,0,1-.14.36c.28-.07.4-.17.3-.33Z"/>
            <path d="M18.66,14.62c.09-.16.14-.27.12-.36h0a.47.47,0,0,1-.14.36c.17-.07.27-.12.3-.19a.13.13,0,0,0,0-.13.11.11,0,0,1,.05.14c0,.08-.14.14-.34.19Z"/>
            <path class="cls-6" d="M19.74,13.9a.61.61,0,0,1,0,.38c.21-.19.28-.45.12-.5Z"/>
            <path d="M19.77,14.29a.75.75,0,0,0-.05-.38h0a.6.6,0,0,1,0,.38.61.61,0,0,0,.17-.4.1.1,0,0,0-.07-.08c.06,0,.09,0,.1.07a.51.51,0,0,1-.21.42Z"/>
            <path class="cls-6" d="M19.71,13.06c.08,0,.16.09.24.23,0-.26,0-.4-.26-.44Z"/>
            <path d="M20,13.29c-.1-.13-.17-.2-.25-.22v0q.12,0,.24.24c0-.27-.07-.38-.27-.42.26,0,.3.19.27.43Z"/>
            <path class="cls-6" d="M17.65,12.28l1.1,1a4.49,4.49,0,0,1-.58.09c-.17,0-.31,0-.26.1s.14,0,.19.12.11.16.21.07a1.27,1.27,0,0,1,.42-.19s0,.54,0,.61-.1.21-.05.21a.73.73,0,0,1,.23,0c.19,0,.17.07.12-.21a2.51,2.51,0,0,1,0-.59,3,3,0,0,1,.56.47c.14.19.12,0,.19,0a.64.64,0,0,1,.23-.12c.07,0-.18-.09-.26-.14l-.6-.35a3,3,0,0,1,.49-.12c.19,0,.19,0,.16-.12a.86.86,0,0,1,0-.23s0-.09-.14,0a6.62,6.62,0,0,1-.66.33L18.05,12Z"/>
            <path d="M19,14.33h-.13a.77.77,0,0,0-.2,0h-.06s0-.07,0-.16l0-.05a5.35,5.35,0,0,0,0-.61s-.31.11-.39.2a.13.13,0,0,1-.1,0,.25.25,0,0,1-.14-.11.14.14,0,0,0-.1-.07l-.08,0h0v0s.16-.08.28-.08a4.82,4.82,0,0,0,.58-.09l-1.11-1,0,0,1.1,1a2.06,2.06,0,0,1-.59.12.44.44,0,0,0-.26.06.18.18,0,0,0,.08,0s.09,0,.12.08.07.1.11.1a.13.13,0,0,0,.08,0,1.41,1.41,0,0,1,.43-.2,4.64,4.64,0,0,1,0,.64l0,.05a.3.3,0,0,0,0,.14.56.56,0,0,1,.23,0H19a.58.58,0,0,0,0-.1l0-.11a2.85,2.85,0,0,1,0-.59,2.25,2.25,0,0,1,.59.46c.06.08.07.09.09.09s0,0,0,0l.05-.07a.53.53,0,0,1,.21-.11s-.05-.05-.1-.07a.53.53,0,0,1-.13-.06l-.61-.35a1.39,1.39,0,0,1,.5-.14.32.32,0,0,0,.16,0,.18.18,0,0,0,0-.06.64.64,0,0,1,0-.19.11.11,0,0,0,0-.05s-.05,0-.12,0a5,5,0,0,1-.66.33L18,12l.93,1.2s.53-.24.64-.33.11-.07.14-.06a.09.09,0,0,1,0,.07.43.43,0,0,0,0,.05.56.56,0,0,0,0,.18.14.14,0,0,1,0,.09s-.06,0-.18,0-.44.11-.49.12a4.56,4.56,0,0,1,.61.33l.13.06c.11,0,.15.06.15.08l-.05,0a.42.42,0,0,0-.2.1l0,.06s0,.06-.05.06-.07,0-.12-.1a2.63,2.63,0,0,0-.56-.46s0,.31.05.57v.1c0,.08,0,.12,0,.13Z"/>
            <path d="M16.78,15.33l.5-.59c.56.35,1,.25,1.24-.28-.85.15-1.24-.62-1.2-2.29l.64,1v-.91l.77.09-2-2.18Z"/>
            <path d="M15.75,8.34v2.77l-3.14,2.58V6.81a1.39,1.39,0,0,1,.32-1.07V7.17Z"/>
            <polygon class="cls-5" points="15.21 13.38 15.12 13.38 15.12 7.52 15.21 7.52 15.21 13.38 15.21 13.38"/>
            <polygon class="cls-5" points="14.55 13.38 14.46 13.38 14.46 7.52 14.55 7.52 14.55 13.38 14.55 13.38"/>
            <polygon class="cls-5" points="13.89 13.38 13.8 13.38 13.8 7.52 13.89 7.52 13.89 13.38 13.89 13.38"/>
            <polygon class="cls-5" points="13.24 13.38 13.15 13.38 13.15 7.52 13.24 7.52 13.24 13.38 13.24 13.38"/>
            <path d="M16.36,8.86c-2.11,0-3-.68-3.45-1.2V5.76a.49.49,0,0,1-.37-.52c.65.54,1.68-.72,2.29.59A.69.69,0,0,1,13.61,6c-.46.4-.09,1.9,2.75,1.88Z"/>
            <path class="cls-6" d="M15.58,13.45a.3.3,0,0,1-.11.48.41.41,0,0,0-.07-.4Z"/>
            <path d="M15.47,13.94a.47.47,0,0,0-.08-.4.35.35,0,0,1,.09.39.5.5,0,0,0,.16-.23.28.28,0,0,0-.07-.24h0a.32.32,0,0,1,.07.26.38.38,0,0,1-.2.23Z"/>
            <path class="cls-6" d="M14.76,14.25a.53.53,0,0,0,.14.36c-.28-.07-.39-.17-.3-.33Z"/>
            <path d="M14.92,14.6c-.22,0-.32-.09-.35-.17a.14.14,0,0,1,0-.16c0,.07,0,.11,0,.15s.13.12.32.17a.39.39,0,0,1-.16-.34h0c0,.09,0,.2.14.34Z"/>
            <path class="cls-6" d="M13.83,13.9a.6.6,0,0,0,0,.38c-.21-.19-.28-.45-.12-.5Z"/>
            <path d="M13.82,14.27a.46.46,0,0,1-.24-.4.13.13,0,0,1,.1-.1.34.34,0,0,0-.07.11.51.51,0,0,0,.2.39.47.47,0,0,1,0-.37h0a.55.55,0,0,0,0,.36Z"/>
            <path class="cls-6" d="M13.85,13.06c-.08,0-.16.09-.24.23,0-.26,0-.4.26-.44Z"/>
            <path d="M13.63,13.3c-.05-.25,0-.42.24-.47-.2.07-.27.18-.24.46a.34.34,0,0,1,.21-.25v0a.41.41,0,0,0-.22.23Z"/>
            <path class="cls-6" d="M15.91,12.28l-1.1,1a4.43,4.43,0,0,0,.59.09c.16,0,.3,0,.26.1s-.14,0-.19.12-.12.16-.21.07a1.39,1.39,0,0,0-.43-.19,4.66,4.66,0,0,0,0,.61c0,.07.09.21,0,.21a.68.68,0,0,0-.23,0c-.19,0-.16.07-.12-.21a2.85,2.85,0,0,0,0-.59A3,3,0,0,0,14,14c-.14.19-.11,0-.18,0a.68.68,0,0,0-.24-.12c-.07,0,.19-.09.26-.14l.61-.35a3.37,3.37,0,0,0-.49-.12c-.19,0-.19,0-.17-.12a.58.58,0,0,0,0-.23s0-.09.14,0a6.62,6.62,0,0,0,.66.33L15.52,12Z"/>
            <path d="M14.54,14.33h0s0-.05,0-.13l0-.1a2.53,2.53,0,0,0,0-.59s-.4.3-.54.48-.08.1-.11.1,0,0-.05-.06l0-.06a.38.38,0,0,0-.2-.1l0,0s0,0,.15-.08l.13-.06.6-.35s-.31-.07-.48-.1-.16,0-.18,0,0,0,0-.09a.54.54,0,0,0,0-.18v-.05s0-.06,0-.07.07,0,.13.06a5.33,5.33,0,0,0,.66.32L15.5,12l-.89,1.24a4.09,4.09,0,0,1-.68-.33c-.06-.06-.09-.05-.1-.05a.39.39,0,0,0,0,.09.6.6,0,0,1,0,.19s0,.05,0,.06.06,0,.16,0a3.92,3.92,0,0,1,.49.11,4.87,4.87,0,0,1-.6.38l-.14.06-.13.06a.65.65,0,0,1,.25.12.25.25,0,0,1,0,.07s0,0,0,0S14,14,14,14a3.19,3.19,0,0,1,.57-.47,1.79,1.79,0,0,1,0,.6l0,.11c0,.05,0,.1,0,.1h.13a.76.76,0,0,1,.2,0s0-.09,0-.13l0-.05c0-.08,0-.6,0-.62a1,1,0,0,1,.45.18.11.11,0,0,0,.07,0s.08,0,.11-.1a.28.28,0,0,1,.12-.08l.08,0s-.11-.07-.25-.07a3.31,3.31,0,0,1-.59-.1l1.09-1,0,0-1.1,1s.42.07.58.07.26,0,.28.08h0v0l-.09,0a.14.14,0,0,0-.1.07.25.25,0,0,1-.14.11.12.12,0,0,1-.09,0,1.53,1.53,0,0,0-.42-.19c0,.14,0,.54,0,.6l0,.05c0,.09.06.14,0,.16h-.06a.77.77,0,0,0-.2,0h-.13Z"/>
            <path d="M16.78,15.33l-.49-.59c-.56.35-1,.25-1.24-.28.84.15,1.24-.62,1.19-2.29l-.63,1v-.91l-.78.09,2-2.18Z"/>
          </g>
        </g>
      </g>
    </g>
  </g>
</svg>
