<svg xmlns="http://www.w3.org/2000/svg" viewBox="0 0 482.4 456.51">
  <g id="Layer_2" data-name="Layer 2">
    <g id="Layer_1-2" data-name="Layer 1">
      <g>
        <g>
          <path d="M322.42,76c.2,2.27.4,5,.79,8.17L273.69,70.78V46.17h9.94a8.74,8.74,0,0,0,8.77-8.86V13.68a8.72,8.72,0,0,0-8.77-8.76h29.54a8.72,8.72,0,0,1,8.76,8.76V37.31a8.74,8.74,0,0,1-8.76,8.86h-9.94V70.78Z"/>
          <path d="M323.21,89.1a5.06,5.06,0,0,1-1.28-.17L272.41,75.54a4.92,4.92,0,0,1-3.64-4.76V46.17a4.92,4.92,0,0,1,4.92-4.92h9.94a3.8,3.8,0,0,0,3.84-3.94V13.68a3.79,3.79,0,0,0-3.84-3.83,4.93,4.93,0,0,1,0-9.85h29.54a13.69,13.69,0,0,1,13.68,13.68V37.31a13.58,13.58,0,0,1-13.68,13.78h-5V67l15.57,4.23a4.92,4.92,0,0,1,3.61,4.32l.12,1.44c.16,1.91.34,4.11.64,6.55a4.92,4.92,0,0,1-4.88,5.54ZM278.62,67l20,5.39a4.89,4.89,0,0,1-.27-1.63V46.17a4.92,4.92,0,0,1,4.92-4.92h9.94A3.8,3.8,0,0,0,317,37.31V13.68a3.79,3.79,0,0,0-3.84-3.83h-16.4a13.43,13.43,0,0,1,.55,3.83V37.31a13.59,13.59,0,0,1-13.69,13.78h-5Z"/>
        </g>
        <g>
          <path d="M463.7,435.14a16.48,16.48,0,0,1-16.44,16.45H417.72a16.4,16.4,0,1,0,0-32.79h-7.38V193.65a115.72,115.72,0,0,0,29.53-23.14V418.8h7.39A16.39,16.39,0,0,1,463.7,435.14Z"/>
          <path d="M447.26,456.51H417.72a4.93,4.93,0,0,1,0-9.85,11.47,11.47,0,1,0,0-22.93h-7.38a4.92,4.92,0,0,1-4.92-4.93V193.65a4.91,4.91,0,0,1,2.54-4.31,111.22,111.22,0,0,0,28.29-22.16,4.93,4.93,0,0,1,8.55,3.33V413.88h2.46a21.32,21.32,0,1,1,0,42.63Zm-11.55-9.85h11.55a11.47,11.47,0,1,0,0-22.93h-7.39A4.92,4.92,0,0,1,435,418.8V182.25a120.54,120.54,0,0,1-19.69,14.27V413.88h2.46a21.27,21.27,0,0,1,18,32.78Z"/>
        </g>
        <g>
          <path d="M417.77,456.46H21.37a21.32,21.32,0,1,1,0-42.63h396.4a21.32,21.32,0,1,1,0,42.63ZM21.37,423.67A11.35,11.35,0,0,0,9.85,435.1a11.52,11.52,0,0,0,11.52,11.51h396.4a11.47,11.47,0,1,0,0-22.94Z"/>
          <g>
            <path d="M273.72,423.67H28.77a4.92,4.92,0,0,1-4.92-4.92V46.15a4.92,4.92,0,0,1,4.92-4.92h245a4.92,4.92,0,0,1,4.92,4.92v372.6A4.92,4.92,0,0,1,273.72,423.67Zm-240-9.84h235.1V51.07H33.69Z"/>
            <path d="M410.34,423.72H273.69a4.92,4.92,0,0,1-4.92-4.92v-348a4.9,4.9,0,0,1,1.93-3.9A5,5,0,0,1,275,66l49.51,13.39a4.92,4.92,0,0,1-2.56,9.51L278.62,77.22V413.88h126.8V193.65a4.92,4.92,0,0,1,9.84,0V418.8A4.92,4.92,0,0,1,410.34,423.72Z"/>
          </g>
          <path d="M371,155.94a4.91,4.91,0,0,1-1.54-.25l-57.89-19.13a4.92,4.92,0,0,1,3.09-9.35l57.89,19.13a4.92,4.92,0,0,1-1.55,9.6Z"/>
          <path d="M371,205.18a4.91,4.91,0,0,1-1.54-.25l-57.89-19.14a4.92,4.92,0,0,1,3.09-9.34l57.89,19.14a4.92,4.92,0,0,1-1.55,9.59Z"/>
          <path d="M371,254.42a4.91,4.91,0,0,1-1.54-.25L311.52,235a4.92,4.92,0,0,1,3.09-9.35l57.89,19.14a4.92,4.92,0,0,1-1.55,9.59Z"/>
          <path d="M371,303.67a4.91,4.91,0,0,1-1.54-.25l-57.89-19.14a4.92,4.92,0,0,1,3.09-9.34l57.89,19.13a4.92,4.92,0,0,1-1.55,9.6Z"/>
          <path d="M371,352.91a4.91,4.91,0,0,1-1.54-.25l-57.89-19.14a4.92,4.92,0,0,1,3.09-9.34l57.89,19.13a4.92,4.92,0,0,1-1.55,9.6Z"/>
          <path d="M371,402.15a4.91,4.91,0,0,1-1.54-.25l-57.89-19.13a4.92,4.92,0,0,1,3.09-9.35l57.89,19.13a4.92,4.92,0,0,1-1.55,9.6Z"/>
          <path d="M197,423.67H105.46a4.92,4.92,0,0,1-4.92-4.92V329.08a20.89,20.89,0,0,1,20.91-20.81h59.6A20.88,20.88,0,0,1,202,329.08v89.67A4.92,4.92,0,0,1,197,423.67Zm-86.64-9.84h81.72V329.08a11,11,0,0,0-11.06-11h-59.6a11,11,0,0,0-11.06,11Z"/>
        </g>
        <path d="M283.66,51.12H18.83A13.75,13.75,0,0,1,5.14,37.34V13.71A13.7,13.7,0,0,1,18.83,0H283.66a13.7,13.7,0,0,1,13.68,13.69V37.34A13.58,13.58,0,0,1,283.66,51.12ZM18.83,9.87A3.84,3.84,0,0,0,15,13.71V37.34a3.89,3.89,0,0,0,3.84,3.93H283.66a3.8,3.8,0,0,0,3.84-3.93V13.71a3.8,3.8,0,0,0-3.84-3.84Z"/>
        <path d="M125.35,160.49H77.4a14.18,14.18,0,0,1-14.17-14.17V94.73A14.15,14.15,0,0,1,77.4,80.65h47.95a14.15,14.15,0,0,1,14.18,14.08v51.59A14.19,14.19,0,0,1,125.35,160.49ZM77.4,90.5a4.29,4.29,0,0,0-4.33,4.23v51.59a4.33,4.33,0,0,0,4.33,4.33h47.95a4.33,4.33,0,0,0,4.33-4.33V94.73a4.29,4.29,0,0,0-4.33-4.23Z"/>
        <path d="M125.35,263.48H77.4A14.19,14.19,0,0,1,63.23,249.3V197.71A14.19,14.19,0,0,1,77.4,183.54h47.95a14.19,14.19,0,0,1,14.18,14.17V249.3A14.19,14.19,0,0,1,125.35,263.48ZM77.4,193.38a4.33,4.33,0,0,0-4.33,4.33V249.3a4.33,4.33,0,0,0,4.33,4.33h47.95a4.33,4.33,0,0,0,4.33-4.33V197.71a4.33,4.33,0,0,0-4.33-4.33Z"/>
        <path d="M225.08,263.48H177.14A14.19,14.19,0,0,1,163,249.3V197.71a14.19,14.19,0,0,1,14.18-14.17h47.94a14.19,14.19,0,0,1,14.18,14.17V249.3A14.19,14.19,0,0,1,225.08,263.48Zm-47.94-70.1a4.33,4.33,0,0,0-4.33,4.33V249.3a4.33,4.33,0,0,0,4.33,4.33h47.94a4.33,4.33,0,0,0,4.33-4.33V197.71a4.33,4.33,0,0,0-4.33-4.33Z"/>
        <path d="M225.08,160.49H177.14A14.19,14.19,0,0,1,163,146.32V94.73a14.15,14.15,0,0,1,14.18-14.08h47.94a14.15,14.15,0,0,1,14.18,14.08v51.59A14.19,14.19,0,0,1,225.08,160.49Zm-47.94-70a4.29,4.29,0,0,0-4.33,4.23v51.59a4.33,4.33,0,0,0,4.33,4.33h47.94a4.33,4.33,0,0,0,4.33-4.33V94.73a4.29,4.29,0,0,0-4.33-4.23Z"/>
        <g>
          <path d="M399.88,202.53a15,15,0,0,1-6.41-1.42c-64.86-30.84-74.56-103.28-76-124.75a15,15,0,0,1,9.52-15c25.43-10.26,51-28,63.93-37.7a14.68,14.68,0,0,1,18,0c10.27,7.72,37.12,26.9,63.86,37.65a15.05,15.05,0,0,1,9.55,14.92v0c-1.43,21.47-11.13,93.91-76.05,124.75A15.16,15.16,0,0,1,399.88,202.53Zm0-172a5,5,0,0,0-3,1.07c-13.39,10-39.73,28.3-66.17,39a5.16,5.16,0,0,0-3.4,5.14c1.34,20.16,10.37,88,70.37,116.55a5.37,5.37,0,0,0,4.44,0c60-28.5,69.09-96.3,70.43-116.46a5.33,5.33,0,0,0-3.42-5.23c-26.8-10.77-52.92-29-66.11-38.93A5.14,5.14,0,0,0,399.92,30.49ZM477.47,76h0Z"/>
          <path d="M401.88,153.69a41.1,41.1,0,1,1,41.1-41.1A41.15,41.15,0,0,1,401.88,153.69Zm0-72.35a31.26,31.26,0,1,0,31.25,31.25A31.29,31.29,0,0,0,401.88,81.34Z"/>
          <path d="M395.4,127.58a4.88,4.88,0,0,1-3.48-1.45l-7.25-7.25a4.92,4.92,0,1,1,7-7l3.77,3.77L413.14,98a4.93,4.93,0,1,1,7,7l-21.22,21.21A4.88,4.88,0,0,1,395.4,127.58Z"/>
        </g>
      </g>
    </g>
  </g>
</svg>
