<svg xmlns="http://www.w3.org/2000/svg" viewBox="0 0 460.38 483.37">
  <g id="Layer_2" data-name="Layer 2">
    <g id="Layer_1-2" data-name="Layer 1">
      <g>
        <g>
          <g>
            <path d="M298.4,272.9a92.65,92.65,0,0,1,31.31,20.58c-4.82,3.54-11.12,8.07-18.51,12.8a94.83,94.83,0,0,0-42.33-33.38l-64-21.65h-.4l.4-.5V228.5a82.75,82.75,0,0,0,43.51-58.28,7.37,7.37,0,0,0,1.48.1,24.79,24.79,0,0,0,24.71-24.71,24.24,24.24,0,0,0-6.4-16.54V57A52.09,52.09,0,0,0,216.1,4.93h29.54A52.1,52.1,0,0,1,297.72,57v72.07a24.28,24.28,0,0,1,6.39,16.54,24.78,24.78,0,0,1-24.71,24.71,7.27,7.27,0,0,1-1.47-.1,82.72,82.72,0,0,1-43.52,58.28v22.25l-.39.5h.39Z"/>
            <path d="M311.2,311.2a4.91,4.91,0,0,1-4-2.07,89.82,89.82,0,0,0-40.13-31.65L203.56,256a5.08,5.08,0,0,1-3.6-6.6V228.51a4.92,4.92,0,0,1,2.67-4.38A77.44,77.44,0,0,0,222.07,210a76.64,76.64,0,0,0,21.48-40.62,4.92,4.92,0,0,1,5.83-3.94,19.92,19.92,0,0,0,20.28-19.79,19.3,19.3,0,0,0-5.12-13.22,5,5,0,0,1-1.28-3.32V57A47.2,47.2,0,0,0,216.1,9.85a4.93,4.93,0,0,1,0-9.85h29.53a57.07,57.07,0,0,1,57,57v70.26a29,29,0,0,1,6.4,18.35,29.67,29.67,0,0,1-27.1,29.53,87.9,87.9,0,0,1-42.6,56.31v16.27L300,268.24l.24.09a96.85,96.85,0,0,1,33,21.67,4.91,4.91,0,0,1-.57,7.44c-4.74,3.49-11.16,8.12-18.76,13A5,5,0,0,1,311.2,311.2Zm-36.15-41a99.39,99.39,0,0,1,37.33,29.44c3.54-2.35,6.76-4.6,9.61-6.64a88.31,88.31,0,0,0-25.29-15.48ZM209.8,247.72l21.13,7.15a4.67,4.67,0,0,1-1.15-1.5,5.13,5.13,0,0,1-.29-4V228.51a4.92,4.92,0,0,1,2.67-4.38,77.88,77.88,0,0,0,40.92-54.79,4.94,4.94,0,0,1,5.84-3.94,19.92,19.92,0,0,0,20.27-19.79,19.29,19.29,0,0,0-5.11-13.22,4.92,4.92,0,0,1-1.29-3.32V57a47.21,47.21,0,0,0-44.6-47.08A57,57,0,0,1,273.1,57v70.26a29,29,0,0,1,6.4,18.35,29.67,29.67,0,0,1-27.1,29.53,87.82,87.82,0,0,1-42.6,56.31Z"/>
          </g>
          <g>
            <path d="M455.43,344.08c-1.67,25.21-12.3,100.72-80.92,133.3a11.53,11.53,0,0,1-9.55,0c-3.45-1.67-6.8-3.44-9.95-5.31,59.66-34.85,69.31-104.06,70.89-128A11.18,11.18,0,0,0,418.71,333c-24.51-9.85-48.83-25.7-63.7-36.33,3.15-2.36,5.81-4.33,8.08-6a10.91,10.91,0,0,1,13.39,0c12.7,9.64,42,30.42,71.76,42.33A11.17,11.17,0,0,1,455.43,344.08Z"/>
            <path d="M369.72,483.34a16.38,16.38,0,0,1-6.85-1.49c-3.63-1.77-7.1-3.61-10.36-5.55a4.91,4.91,0,0,1,0-8.48c56.58-33.06,66.73-97.77,68.46-124.06a6.29,6.29,0,0,0-4.13-6.24c-26.08-10.47-51.74-27.61-64.71-36.88a4.92,4.92,0,0,1-.09-7.94l8.11-6a15.84,15.84,0,0,1,19.26,0c11.22,8.52,40.53,29.62,70.64,41.69a16.07,16.07,0,0,1,10.28,16v0c-1.57,23.66-12.25,103.48-83.73,137.42A16.38,16.38,0,0,1,369.72,483.34Zm-5-11.56,2.38,1.18a6.55,6.55,0,0,0,5.31,0c64.78-30.76,76.2-100.54,78.1-129.14a6.27,6.27,0,0,0-4.12-6.26c-31.22-12.51-61.39-34.22-72.91-43a6,6,0,0,0-7.43,0l-2.64,2c13.57,9.36,35.26,23.09,57.12,31.87a16.05,16.05,0,0,1,10.27,16C429.05,371.11,419,435.3,364.73,471.78Zm90.7-127.7h0Z"/>
          </g>
        </g>
        <path d="M299.19,456.71H28.65A28.68,28.68,0,0,1,0,428.06V361.22a90.56,90.56,0,0,1,1.67-17.61,99,99,0,0,1,61.6-75.38l63.94-21.55c3-1.06,6.74,1.4,6.74,4.66a4.73,4.73,0,0,1-4.33,4.92l-63,21.21a89.2,89.2,0,0,0-55.32,67.95,81.43,81.43,0,0,0-1.5,15.8v66.84a18.83,18.83,0,0,0,18.81,18.8H299.19a4.93,4.93,0,1,1,0,9.85Z"/>
        <path d="M311.2,311.2a4.91,4.91,0,0,1-4-2.07,89.82,89.82,0,0,0-40.13-31.65L203.52,256a5,5,0,0,1-3.76-4.74,4.75,4.75,0,0,1,4.72-4.92h.4a5,5,0,0,1,1.58.26l64,21.66a99.72,99.72,0,0,1,44.76,35.19,4.91,4.91,0,0,1-4,7.77Z"/>
        <path d="M209.41,456.71H28.65A28.68,28.68,0,0,1,0,428.06V361.22a90.56,90.56,0,0,1,1.67-17.61,4.92,4.92,0,0,1,4.83-4H59.67a4.92,4.92,0,0,1,4.92,4.92v47.16l5.71.4a4.92,4.92,0,0,1,0,9.84H65a10.26,10.26,0,0,1-10.24-10.24V349.5H10.65a82.63,82.63,0,0,0-.81,11.72v66.84a18.83,18.83,0,0,0,18.81,18.8H209.41a5.23,5.23,0,0,0,5.22-5.21V407.29a5.28,5.28,0,0,0-5.22-5.32h-7.48a4.92,4.92,0,1,1,0-9.84h7.48a15.13,15.13,0,0,1,15.06,15.16v34.36A15.08,15.08,0,0,1,209.41,456.71Z"/>
        <path d="M189.78,456.72H82.42a17,17,0,0,1-17-17V395.51a17,17,0,0,1,17-17H189.78a17,17,0,0,1,17,17v44.18A17,17,0,0,1,189.78,456.72ZM82.42,388.33a7.19,7.19,0,0,0-7.18,7.18v44.18a7.19,7.19,0,0,0,7.18,7.18H189.78a7.11,7.11,0,0,0,7.19-7.18V395.51a7.11,7.11,0,0,0-7.19-7.18Z"/>
        <g>
          <path d="M170.82,303.91a5,5,0,0,1-3.72-1.68l-42-48.24a5,5,0,0,1-1.21-3.24V228.51a4.93,4.93,0,1,1,9.85,0v20.4L170.41,291,200,249.19V228.51a4.92,4.92,0,1,1,9.84,0v22.24a5,5,0,0,1-.9,2.84l-34.07,48.24a4.91,4.91,0,0,1-3.76,2.08Z"/>
          <g>
            <path d="M268.18,134a4.92,4.92,0,0,1-4.92-4.92V57A47.21,47.21,0,0,0,216.1,9.84H141.58A47.18,47.18,0,0,0,94.42,57a4.94,4.94,0,0,1-3.29,4.65A30.93,30.93,0,0,0,70.49,90.77V129a4.92,4.92,0,0,1-9.84,0V90.77a40.8,40.8,0,0,1,24-37.14A57,57,0,0,1,141.58,0H216.1a57.06,57.06,0,0,1,57,57v72.07A4.92,4.92,0,0,1,268.18,134Z"/>
            <g>
              <path d="M83.88,175.24a29.68,29.68,0,0,1,0-59.36,5,5,0,0,1,5,4.92,4.83,4.83,0,0,1-4.82,4.92h-.2a19.84,19.84,0,0,0,0,39.68,5.17,5.17,0,0,1,6.06,3.85,4.76,4.76,0,0,1-3.6,5.8A12.81,12.81,0,0,1,83.88,175.24Z"/>
              <path d="M249.87,175.24a11.9,11.9,0,0,1-2.47-.2,4.92,4.92,0,0,1,1.93-9.65h0c11.46,0,20.32-8.88,20.32-19.78a20.28,20.28,0,0,0-2.14-9,13.06,13.06,0,0,0-.77-1.25l3.3-4-3.85,3.06L265,133c-.09-.14-.14-.2-.13-.21l-.41-.41a19.29,19.29,0,0,0-14.62-6.61,4.92,4.92,0,0,1,0-9.84,29.38,29.38,0,0,1,21.7,9.6,7.71,7.71,0,0,1,1.36,1.59l1,1.2a16.13,16.13,0,0,1,1.32,2.1,11.63,11.63,0,0,1,1.11,1.86,30,30,0,0,1,3.16,13.38A29.66,29.66,0,0,1,249.87,175.24Zm15.58-42.07h0Z"/>
            </g>
            <path d="M166.83,242.72A88,88,0,0,1,79,154.77V120.88a4.92,4.92,0,0,1,3.29-4.64c35-12.36,30.17-36.78,30.12-37a4.92,4.92,0,0,1,9-3.66c28.66,45.7,127.17,40.21,128.2,40.16a5,5,0,0,1,3.67,1.32,4.94,4.94,0,0,1,1.55,3.59v34.15a88.07,88.07,0,0,1-87.95,87.95Zm-78-118.43v30.48a78,78,0,0,0,133.25,55.15,77.2,77.2,0,0,0,22.86-55.15v-29c-20,.54-90.3-.15-123.62-34.44C118.82,101.68,111.09,115.45,88.82,124.29Z"/>
          </g>
          <g>
            <ellipse cx="128.79" cy="140.98" rx="13.37" ry="10.03"/>
            <ellipse cx="204.91" cy="140.98" rx="13.37" ry="10.03"/>
          </g>
          <path d="M166.89,221.49a39.32,39.32,0,0,1-37.59-28.38,10.49,10.49,0,0,1,1.76-9.25,11,11,0,0,1,8.7-4.31h54.18a11,11,0,0,1,8.71,4.31,10.47,10.47,0,0,1,1.77,9.21s0,0,0,0A39.29,39.29,0,0,1,166.89,221.49Zm-28.13-31.1a29.19,29.19,0,0,0,56.18,0,.63.63,0,0,0-.14-.59l-55-.41L134,191.75Zm60.92,1.36h0Z"/>
        </g>
        <path d="M88,456.72a4.86,4.86,0,0,1-1.86-.37,4.91,4.91,0,0,1-2.7-6.41l27.89-68.39a4.92,4.92,0,0,1,9.06-.13l25.48,57.42,21.61-57.17a4.92,4.92,0,1,1,9.21,3.48l-25.84,68.39a4.94,4.94,0,0,1-4.48,3.18,5.44,5.44,0,0,1-4.63-2.93L116.12,396,92.59,453.66A4.91,4.91,0,0,1,88,456.72Z"/>
        <path d="M201.89,441.51a4.9,4.9,0,0,1-2.86-.91l-39.3-27.93a4.93,4.93,0,0,1,5.71-8l39.3,27.94a4.92,4.92,0,0,1-2.85,8.93Z"/>
        <g>
          <path d="M340.18,483.37a16.28,16.28,0,0,1-6.86-1.5c-71.41-34-82.09-113.77-83.67-137.42a16.12,16.12,0,0,1,10.21-16c28.08-11.32,56.38-31,70.75-41.72a15.72,15.72,0,0,1,19.31,0c11.35,8.54,41.06,29.75,70.67,41.66a16.08,16.08,0,0,1,10.22,16v0c-1.57,23.65-12.26,103.46-83.73,137.4A16.24,16.24,0,0,1,340.18,483.37Zm.05-190.08a6,6,0,0,0-3.67,1.28c-14.82,11.05-43.91,31.26-73,43a6.22,6.22,0,0,0-4.07,6.2C261,366.1,271,441.31,337.53,473a6.41,6.41,0,0,0,5.35,0C409.46,441.33,419.5,366.16,421,343.83a6.41,6.41,0,0,0-4.09-6.28c-29.57-11.88-58.4-32-72.94-42.95A6.16,6.16,0,0,0,340.23,293.29Zm85.67,50.84h0Z"/>
          <path d="M342.39,429.41a44.89,44.89,0,1,1,44.89-44.89A44.94,44.94,0,0,1,342.39,429.41Zm0-79.94a35.05,35.05,0,1,0,35,35A35.1,35.1,0,0,0,342.39,349.47Z"/>
          <path d="M335.23,400.56h0a4.89,4.89,0,0,1-3.48-1.45l-8-8a4.92,4.92,0,0,1,7-7l4.53,4.53,20-20a4.92,4.92,0,0,1,7,7l-23.45,23.44A4.89,4.89,0,0,1,335.23,400.56Z"/>
        </g>
      </g>
    </g>
  </g>
</svg>
