<svg xmlns="http://www.w3.org/2000/svg" viewBox="0 0 308.88 220.24">
  <g id="Layer_2" data-name="Layer 2">
    <g id="Object">
      <g>
        <rect x="42.41" y="67.24" width="41.85" height="41.85" rx="20.93"/>
        <path d="M217.76,60.56A60.74,60.74,0,0,0,157.2,0h0A60.74,60.74,0,0,0,96.64,60.56h0v88.49s121.11-13.48,121.12-88.48Z"/>
        <path d="M0,178.1H0a42.26,42.26,0,0,0,42.13,42.13h0a42.26,42.26,0,0,0,42.13-42.13h0V116.54S0,125.92,0,178.1Zm42.13,11.08A11.08,11.08,0,1,1,53.2,178.11,11.1,11.1,0,0,1,42.13,189.18Z"/>
        <g>
          <path d="M104.54,194a13.48,13.48,0,0,1-5.27-5.05,14.76,14.76,0,0,1,0-14.56,13.69,13.69,0,0,1,5.29-5.06,16.59,16.59,0,0,1,13.72-.65,12.65,12.65,0,0,1,4.72,3.42l-3.31,3.11a9.62,9.62,0,0,0-7.35-3.22,10.3,10.3,0,0,0-5.08,1.24,8.84,8.84,0,0,0-3.5,3.44,10.55,10.55,0,0,0,0,10,9,9,0,0,0,3.5,3.44,10.41,10.41,0,0,0,5.08,1.24,9.56,9.56,0,0,0,7.35-3.27l3.31,3.15a12.43,12.43,0,0,1-4.74,3.42,15.82,15.82,0,0,1-6.2,1.18A15.55,15.55,0,0,1,104.54,194Z"/>
          <path d="M132.62,194a13.56,13.56,0,0,1-5.31-5.07,14.62,14.62,0,0,1,0-14.52,13.52,13.52,0,0,1,5.31-5.08,16.68,16.68,0,0,1,15.19,0,13.54,13.54,0,0,1,5.31,5.06,14.7,14.7,0,0,1,0,14.56,13.52,13.52,0,0,1-5.31,5.05,16.68,16.68,0,0,1-15.19,0Zm12.56-3.89a9.06,9.06,0,0,0,3.46-3.46,10.47,10.47,0,0,0,0-10,9,9,0,0,0-3.46-3.46,10.54,10.54,0,0,0-9.92,0,8.92,8.92,0,0,0-3.46,3.46,10.47,10.47,0,0,0,0,10,9,9,0,0,0,3.46,3.46,10.54,10.54,0,0,0,9.92,0Z"/>
          <path d="M185.79,195.4l0-18.26-9.05,15.11h-2.29l-9-14.87v18h-4.88V167.85h4.21l10.94,18.26,10.75-18.26h4.21l0,27.55Z"/>
          <path d="M215.63,169a9.07,9.07,0,0,1,4.08,3.38,10.39,10.39,0,0,1,0,10.45,9.1,9.1,0,0,1-4.08,3.4,15.19,15.19,0,0,1-6.23,1.18h-6.22v8h-5.12V167.85H209.4A15.19,15.19,0,0,1,215.63,169Zm-1.39,12.67a5.62,5.62,0,0,0,0-8.11,7.91,7.91,0,0,0-5.08-1.42h-6v10.94h6A7.91,7.91,0,0,0,214.24,181.71Z"/>
          <path d="M242.73,189H229l-2.71,6.37H221l12.39-27.55h5l12.43,27.55h-5.35ZM241,185l-5.2-12-5.15,12Z"/>
          <path d="M278.81,167.85V195.4H274.6l-15.19-18.65V195.4h-5.07V167.85h4.21l15.19,18.66V167.85Z"/>
          <path d="M298.09,185.68v9.72H293v-9.64l-10.82-17.91h5.47l8.06,13.42,8.15-13.42h5Z"/>
        </g>
      </g>
    </g>
  </g>
</svg>
