<svg xmlns="http://www.w3.org/2000/svg" viewBox="0 0 485.65 480.53">
  <g id="Layer_2" data-name="Layer 2">
    <g id="Layer_1-2" data-name="Layer 1">
      <g>
        <g>
          <path d="M480.73,403.54c0,50.11-40.46,72.07-90.38,72.07-5.22,0-10.43-.2-15.45-.69,43.22-3.84,76.3-26.09,76.3-71.38,0-36.92-22-76.2-53.37-96.77a9.33,9.33,0,0,0,4-7.78,9.58,9.58,0,0,0-9.65-9.55h-3.64L399,264.63a6.85,6.85,0,0,0-6.4-9.55h-6.21V36.23A31.34,31.34,0,0,0,355,4.92h29.53A31.35,31.35,0,0,1,416,36.23V255.08h6.2a6.85,6.85,0,0,1,6.4,9.55l-10.43,24.81h3.64a9.58,9.58,0,0,1,9.65,9.55,9.35,9.35,0,0,1-4,7.78C458.77,327.34,480.73,366.62,480.73,403.54Z"/>
          <path d="M390.36,480.53c-5.76,0-11.13-.24-15.94-.71a4.93,4.93,0,0,1,0-9.81c45.64-4.05,71.81-28.28,71.81-66.47,0-34.82-21-72.93-51.14-92.66a4.92,4.92,0,0,1-.06-8.19A4.42,4.42,0,0,0,397,299a4.69,4.69,0,0,0-4.73-4.63h-3.64a4.93,4.93,0,0,1-4.11-2.19,5,5,0,0,1-.43-4.64l10.44-24.81a1.81,1.81,0,0,0-.12-1.81,2,2,0,0,0-1.74-.91h-6.21a4.92,4.92,0,0,1-4.92-4.92V36.23A26.45,26.45,0,0,0,355,9.85,4.93,4.93,0,0,1,355,0h29.54a36.31,36.31,0,0,1,36.32,36.23V250.16h1.28a11.87,11.87,0,0,1,10,5.36,11.65,11.65,0,0,1,.93,11.08L425.34,285a14.49,14.49,0,0,1,9.3,20.85c30.71,22.4,51,61,51,97.73C485.65,451.75,450,480.53,390.36,480.53ZM405.1,305.81c30.71,22.4,51,61,51,97.73,0,29.42-13.21,51.61-37.38,64.43,36.22-7.55,57.07-30.46,57.07-64.43,0-34.82-21-72.93-51.14-92.66a4.89,4.89,0,0,1-2.22-4.07,5,5,0,0,1,2.15-4.12,4.43,4.43,0,0,0,1.89-3.7,4.69,4.69,0,0,0-4.73-4.63h-3.65a4.92,4.92,0,0,1-4.1-2.19,5,5,0,0,1-.44-4.64L424,262.72a1.83,1.83,0,0,0-.13-1.81,2,2,0,0,0-1.74-.91H416a4.92,4.92,0,0,1-4.92-4.92V36.23A26.46,26.46,0,0,0,384.55,9.85h-4.66a36.09,36.09,0,0,1,11.45,26.38V250.16h1.28a11.9,11.9,0,0,1,10,5.36,11.68,11.68,0,0,1,.93,11.08L395.81,285a14.47,14.47,0,0,1,9.29,20.85Z"/>
        </g>
        <g>
          <path d="M279.3,444.1h-243A36.32,36.32,0,0,1,0,407.87V36.23A36.32,36.32,0,0,1,36.33,0H355a36.32,36.32,0,0,1,36.34,36.23V255.08a4.93,4.93,0,0,1-9.85,0V36.23A26.46,26.46,0,0,0,355,9.85H36.33A26.47,26.47,0,0,0,9.84,36.23V407.87a26.48,26.48,0,0,0,26.49,26.39h243a4.92,4.92,0,1,1,0,9.84Z"/>
          <g>
            <path d="M345.72,50.5H272a4.92,4.92,0,1,1,0-9.84h73.75a4.92,4.92,0,0,1,0,9.84Z"/>
            <path d="M249.12,50.5H205a4.92,4.92,0,0,1,0-9.84h44.13a4.92,4.92,0,1,1,0,9.84Z"/>
            <path d="M345.72,106.5H318.34a4.93,4.93,0,1,1,0-9.85h27.38a4.93,4.93,0,0,1,0,9.85Z"/>
            <path d="M291,106.5H205a4.93,4.93,0,0,1,0-9.85h86a4.93,4.93,0,0,1,0,9.85Z"/>
            <path d="M345.72,162.49H272a4.93,4.93,0,1,1,0-9.85h73.75a4.93,4.93,0,0,1,0,9.85Z"/>
            <path d="M245.26,162.49H205a4.93,4.93,0,0,1,0-9.85h40.27a4.93,4.93,0,0,1,0,9.85Z"/>
            <path d="M345.72,218.48H307.57a4.92,4.92,0,0,1,0-9.84h38.15a4.92,4.92,0,0,1,0,9.84Z"/>
            <path d="M285.53,218.48H205a4.92,4.92,0,0,1,0-9.84h80.54a4.92,4.92,0,1,1,0,9.84Z"/>
            <path d="M324.69,274.47H236.17a4.92,4.92,0,1,1,0-9.84h88.52a4.92,4.92,0,0,1,0,9.84Z"/>
            <path d="M210.93,274.47H45.66a4.92,4.92,0,1,1,0-9.84H210.93a4.92,4.92,0,0,1,0,9.84Z"/>
            <path d="M302.07,330.46H126.63a4.92,4.92,0,0,1,0-9.84H302.07a4.92,4.92,0,1,1,0,9.84Z"/>
            <path d="M102.17,330.46H45.66a4.92,4.92,0,0,1,0-9.84h56.51a4.92,4.92,0,1,1,0,9.84Z"/>
            <path d="M231.93,386.46H45.66a4.93,4.93,0,0,1,0-9.85H231.93a4.93,4.93,0,1,1,0,9.85Z"/>
          </g>
          <path d="M112.25,198.3a13.66,13.66,0,0,1-5.8-1.28C50.37,170.35,42,107.79,40.76,89.26a13.62,13.62,0,0,1,8.62-13.54c21.78-8.79,43.67-24,54.77-32.3a13.3,13.3,0,0,1,16.33,0c8.78,6.61,31.76,23,54.69,32.25a13.76,13.76,0,0,1,8.63,13.51v0c-1.23,18.53-9.6,81.09-65.72,107.75A13.72,13.72,0,0,1,112.25,198.3Zm0-147.79a3.64,3.64,0,0,0-2.19.76c-11.52,8.62-34.2,24.37-57,33.57a3.76,3.76,0,0,0-2.48,3.72c1.13,17.23,8.85,75.2,60.06,99.56a4,4,0,0,0,3.23,0c51.23-24.34,59-82.27,60.1-99.48a3.83,3.83,0,0,0-2.5-3.8c-23.13-9.3-45.61-25-57-33.53A3.67,3.67,0,0,0,112.27,50.51Zm66.62,38.42h0Z"/>
          <path d="M114,156.34a36,36,0,1,1,36-36A36,36,0,0,1,114,156.34Zm0-62.15a26.16,26.16,0,1,0,26.16,26.15A26.18,26.18,0,0,0,114,94.19Z"/>
          <path d="M108.4,133.91h0a4.89,4.89,0,0,1-3.48-1.45l-6.23-6.23a4.92,4.92,0,0,1,7-7L108.4,122l14.75-14.74a4.92,4.92,0,1,1,7,7l-18.23,18.22A4.89,4.89,0,0,1,108.4,133.91Z"/>
        </g>
        <g>
          <g>
            <path d="M333.06,294.36a4.91,4.91,0,0,1-4.54-3l-10.43-24.81a11.76,11.76,0,0,1,10.83-16.38h6.17a11.4,11.4,0,0,1,2.33-4.3,11.79,11.79,0,0,1,8.92-4.07h28.85a11.84,11.84,0,0,1,9.08,4.18,11.18,11.18,0,0,1,2.26,4.19h6.09a11.9,11.9,0,0,1,10,5.36,11.68,11.68,0,0,1,.93,11.08l-10.41,24.75a4.93,4.93,0,1,1-9.08-3.82l10.44-24.81a1.81,1.81,0,0,0-.12-1.81,2,2,0,0,0-1.74-.91H382a4.92,4.92,0,0,1-4.92-4.92,13.13,13.13,0,0,1,.07-1.4,1.64,1.64,0,0,0-.37-1.35,2,2,0,0,0-1.57-.7H346.34a1.94,1.94,0,0,0-1.48.68,1.78,1.78,0,0,0-.43,1.48,5.57,5.57,0,0,1-1.11,4.22,5.15,5.15,0,0,1-3.67,2H328.92a1.93,1.93,0,0,0-1.79,2.67l10.46,24.86a4.91,4.91,0,0,1-4.53,6.83Z"/>
            <path d="M360.82,480.53c-59.67,0-95.3-28.78-95.3-77,0-38.56,22.33-79.1,55.58-100.89a4.92,4.92,0,0,1,5.4,8.23c-30.11,19.73-51.14,57.84-51.14,92.66,0,42,31.95,67.14,85.46,67.14s85.45-25.09,85.45-67.14c0-34.82-21-72.93-51.14-92.66a4.92,4.92,0,0,1,5.41-8.23c33.24,21.79,55.58,62.33,55.58,100.89C456.12,451.75,420.5,480.53,360.82,480.53Z"/>
            <g>
              <path d="M360.8,444.29a54.71,54.71,0,0,1,0-109.41h0a54.77,54.77,0,0,1,54.71,54.7h0a54.78,54.78,0,0,1-54.72,54.71Zm0-99.57h0a44.86,44.86,0,0,0,0,89.72h0a44.86,44.86,0,1,0,0-89.72Z"/>
              <path d="M348.23,366.61q3.91-4.28,10.95-4.35V357.6h3.33v4.59q7,.49,10.71,4.12a13.34,13.34,0,0,1,3.91,9.58H371a10.61,10.61,0,0,0-1.44-4.59q-2.21-3.54-7.05-3.71v17q8.14,2.28,11.05,4.28,4.72,3.3,4.73,9.74,0,9.33-6.07,13.25-3.36,2.17-9.7,2.88v6.8h-3.33v-6.8q-10.2-.67-13.85-7.22-2-3.54-2-9.57h6.21a17.24,17.24,0,0,0,1.5,7q2.18,4,8.07,4.45v-19.1q-7.56-1.44-11.18-4.81t-3.61-9.32A13.85,13.85,0,0,1,348.23,366.61Zm4.7,14.61a13.37,13.37,0,0,0,6.18,2.74V367.48c-3.06.12-5.24,1-6.53,2.81a9.08,9.08,0,0,0-1.95,5.5A6.77,6.77,0,0,0,352.93,381.22Zm17.86,24a9.73,9.73,0,0,0,1.19-4.87,7.65,7.65,0,0,0-3.23-6.66,20.24,20.24,0,0,0-6.24-2.52v18.43Q368.51,409.34,370.79,405.23Z"/>
            </g>
          </g>
          <path d="M392.27,313.51H329.35a14.51,14.51,0,0,1,0-29h62.92a14.51,14.51,0,0,1,0,29Zm-62.92-19.18a4.67,4.67,0,0,0,0,9.33h62.92a4.67,4.67,0,0,0,0-9.33Z"/>
        </g>
      </g>
    </g>
  </g>
</svg>
