<svg xmlns="http://www.w3.org/2000/svg" viewBox="0 0 32.42 32.39">
  <defs>
    <style>
      .cls-1 {
        fill: #272525;
      }
    </style>
  </defs>
  <g id="Layer_2" data-name="Layer 2">
    <g id="Layer_1-2" data-name="Layer 1">
      <path class="cls-1" d="M16.9,0H15.34a16.21,16.21,0,0,0,0,32.38H16.9A16.21,16.21,0,0,0,16.9,0ZM27.59,6.49a18.49,18.49,0,0,1-3.74,2.19,19.58,19.58,0,0,0-5.13-7.23A15,15,0,0,1,27.59,6.49Zm-10.75-5a18.46,18.46,0,0,1,5.84,7.62,18.13,18.13,0,0,1-5.84,1.08Zm0,10a20.15,20.15,0,0,0,6.28-1.16,18.81,18.81,0,0,1,.94,5.78H16.84Zm0,5.87H24A18.77,18.77,0,0,1,22.8,23a20.05,20.05,0,0,0-6-1ZM13.49,1.49a19.56,19.56,0,0,0-5,7A18.37,18.37,0,0,1,5,6.28,15,15,0,0,1,13.49,1.49ZM4.24,7.25A20,20,0,0,0,8.05,9.61a20.08,20.08,0,0,0-1.11,6.5H1.25A14.78,14.78,0,0,1,4.24,7.25Zm.47,18.49A14.73,14.73,0,0,1,1.3,17.36H7a19.57,19.57,0,0,0,1.39,6.26A19.83,19.83,0,0,0,4.71,25.74Zm.84.94a18.22,18.22,0,0,1,3.32-1.91,19.34,19.34,0,0,0,4.62,6.13A15,15,0,0,1,5.55,26.68Zm10,4.32A18.39,18.39,0,0,1,10,24.3a19,19,0,0,1,5.55-1.1Zm0-9a19.79,19.79,0,0,0-6.06,1.21,18.45,18.45,0,0,1-1.29-5.8h7.35Zm0-5.85H8.2a18.69,18.69,0,0,1,1-6,19.82,19.82,0,0,0,6.38,1.35Zm0-5.9A18.44,18.44,0,0,1,9.66,8.94a18.34,18.34,0,0,1,5.93-7.55Zm1.25,20.67V23.18a19.07,19.07,0,0,1,5.47.93A18.44,18.44,0,0,1,16.84,30.87Zm1.88.07a19.2,19.2,0,0,0,4.77-6.39,17.79,17.79,0,0,1,3.57,1.93A14.91,14.91,0,0,1,18.72,30.94Zm9.17-5.4A18.59,18.59,0,0,0,24,23.39a19.64,19.64,0,0,0,1.29-6h5.85A14.86,14.86,0,0,1,27.89,25.54Zm3.28-9.45H25.31a19.91,19.91,0,0,0-1-6.24,20.05,20.05,0,0,0,4.08-2.38A14.81,14.81,0,0,1,31.17,16.09Z"/>
    </g>
  </g>
</svg>
