<svg xmlns="http://www.w3.org/2000/svg" viewBox="0 0 430.8 337.33">
  <g id="Layer_2" data-name="Layer 2">
    <g id="Layer_1-2" data-name="Layer 1">
      <g>
        <path d="M227.93,140.36V0H174.05l-.23,82.81,0,12.2c-65.62,22.35-70.4,76.13-120.71,76.13V0H0V314H53.08V226.64c61.69,0,76.52-45.82,120.54-70.82C187.83,147.75,205.08,141.85,227.93,140.36Z"/>
        <path d="M376.45,0V167.73c0,95.58-34.67,117.13-74.49,117.13s-74-21.55-74-117.13V152c-18.48,1.3-34.39,5.85-48.59,13.91l-5.74,3.26c.59,130.58,61.22,168.17,128.36,168.17,67.47,0,128.84-37.95,128.84-170.07V0Z"/>
      </g>
    </g>
  </g>
</svg>
