<svg xmlns="http://www.w3.org/2000/svg" viewBox="0 0 368.8 258.28">
  <defs>
    <style>
      .cls-1 {
        fill: #fff;
      }
    </style>
  </defs>
  <g id="Layer_2" data-name="Layer 2">
    <g id="Objects">
      <g>
        <path class="cls-1" d="M203.83,84.74A82.51,82.51,0,0,1,287.05,0c45.72.41,82.26,39.27,81.74,85-1.37,119,0,173.28,0,173.28l-66.57-94.83a82.53,82.53,0,0,1-98.4-78.71Z"/>
        <path class="cls-1" d="M0,84.74A82.51,82.51,0,0,1,83.25,0C129,.41,165.51,39.27,165,85c-1.37,119,0,173.28,0,173.28L98.43,163.45A82.53,82.53,0,0,1,0,84.74Z"/>
      </g>
    </g>
  </g>
</svg>
