<svg xmlns="http://www.w3.org/2000/svg" viewBox="0 0 478.32 482.38">
  <g id="Layer_2" data-name="Layer 2">
    <g id="Layer_1-2" data-name="Layer 1">
      <g>
        <g>
          <path d="M363.67,468.45l3.64,2.75H349.69A35.09,35.09,0,0,0,363.67,468.45Z"/>
          <path d="M367.31,476.13H349.69a4.93,4.93,0,0,1,0-9.85,30.16,30.16,0,0,0,12-2.35,4.91,4.91,0,0,1,4.92.59l3.64,2.76a4.93,4.93,0,0,1-3,8.85Z"/>
        </g>
        <g>
          <path d="M418,104.87V284.64L389.27,273a.65.65,0,0,0-.4-.09V96.9L296.92,5h21.17a18.72,18.72,0,0,1,13.58,5.61L412.3,91.29A18.93,18.93,0,0,1,418,104.87Z"/>
          <path d="M418,289.56a5,5,0,0,1-1.85-.36l-28.45-11.49a4.94,4.94,0,0,1-3.77-4.79v-174L293.44,8.43A4.92,4.92,0,0,1,296.93,0h21.16a23.59,23.59,0,0,1,17.11,7.1l80.59,80.68a24,24,0,0,1,7.15,17.06V284.64a4.94,4.94,0,0,1-2.17,4.08A4.89,4.89,0,0,1,418,289.56Zm-24.22-20,19.29,7.79V104.87a14.05,14.05,0,0,0-4.22-10.05L328.19,14a13.86,13.86,0,0,0-10.1-4.17h-9.28l83.55,83.55a4.92,4.92,0,0,1,1.44,3.48Z"/>
        </g>
        <path d="M349.69,476.13H44.1A44.16,44.16,0,0,1,0,432V44A44.1,44.1,0,0,1,44.1,0H296.93a4.91,4.91,0,0,1,3.48,1.44l91.95,92a4.92,4.92,0,0,1,1.44,3.48v176a4.93,4.93,0,1,1-9.85,0v-174L294.89,9.87H44.1A34.25,34.25,0,0,0,9.84,44V432A34.3,34.3,0,0,0,44.1,466.28H349.69a30.16,30.16,0,0,0,12-2.35,4.92,4.92,0,0,1,3.9,9A40,40,0,0,1,349.69,476.13Z"/>
        <path d="M380.16,99.76h-75a19.8,19.8,0,0,1-19.74-19.83v-75a4.93,4.93,0,0,1,8.4-3.48l89.82,89.92a4.93,4.93,0,0,1-3.48,8.4Zm-84.9-82.94V79.93a10,10,0,0,0,9.9,10h63.12Z"/>
        <g>
          <path d="M254.69,133.62H53.26A11.68,11.68,0,0,1,41.54,122V106.65a11.72,11.72,0,0,1,6.57-10.51L148.76,46.89a11.16,11.16,0,0,1,10.36.07L259.8,96.12a11.84,11.84,0,0,1,6.5,10.53V122A11.63,11.63,0,0,1,254.69,133.62ZM153.86,55.51a1.49,1.49,0,0,0-.65.16L52.47,105a1.92,1.92,0,0,0-1.08,1.69V122a1.86,1.86,0,0,0,1.87,1.76H254.69a1.84,1.84,0,0,0,1.77-1.76V106.65a2,2,0,0,0-1.1-1.74L154.67,55.74A1.67,1.67,0,0,0,153.86,55.51Z"/>
          <path d="M98.82,245.8H65a4.92,4.92,0,0,1-4.92-4.92V128.7A4.93,4.93,0,0,1,65,123.77H98.82a4.93,4.93,0,0,1,4.93,4.93V240.88A4.92,4.92,0,0,1,98.82,245.8ZM69.9,236h24V133.62h-24Z"/>
          <path d="M170.86,245.8H137a4.92,4.92,0,0,1-4.92-4.92V128.7a4.93,4.93,0,0,1,4.92-4.93h33.84a4.93,4.93,0,0,1,4.93,4.93V240.88A4.93,4.93,0,0,1,170.86,245.8ZM141.94,236h24V133.62h-24Z"/>
          <path d="M242.9,245.8H209.06a4.92,4.92,0,0,1-4.92-4.92V128.7a4.93,4.93,0,0,1,4.92-4.93H242.9a4.93,4.93,0,0,1,4.93,4.93V240.88A4.93,4.93,0,0,1,242.9,245.8ZM214,236h24V133.62H214Z"/>
          <path d="M252.13,276.47H55.82A14.25,14.25,0,0,1,41.54,262.3V250.18A14.25,14.25,0,0,1,55.82,236H252.13a14.18,14.18,0,0,1,14.17,14.17V262.3A14.18,14.18,0,0,1,252.13,276.47ZM55.82,245.85a4.39,4.39,0,0,0-4.43,4.33V262.3a4.39,4.39,0,0,0,4.43,4.33H252.13a4.33,4.33,0,0,0,4.33-4.33V250.18a4.33,4.33,0,0,0-4.33-4.33Z"/>
          <path d="M153.92,120.49a23,23,0,1,1,23-23A23,23,0,0,1,153.92,120.49Zm0-36.1a13.13,13.13,0,1,0,13.14,13.13A13.14,13.14,0,0,0,153.92,84.39Z"/>
        </g>
        <path d="M291.11,331.8H113.51a4.93,4.93,0,1,1,0-9.85h177.6a4.93,4.93,0,0,1,0,9.85Z"/>
        <path d="M89.54,331.75H44a4.93,4.93,0,0,1,0-9.85H89.54a4.93,4.93,0,0,1,0,9.85Z"/>
        <path d="M294.26,374.82H225.94a4.92,4.92,0,0,1,0-9.84h68.32a4.92,4.92,0,1,1,0,9.84Z"/>
        <path d="M197.22,374.82H44A4.92,4.92,0,0,1,44,365H197.22a4.92,4.92,0,0,1,0,9.84Z"/>
        <path d="M221.83,417.89H44a4.92,4.92,0,0,1,0-9.84H221.83a4.92,4.92,0,0,1,0,9.84Z"/>
        <g>
          <path d="M382,482.38a24.12,24.12,0,0,1-14.63-4.89l-65.69-50.12a24.09,24.09,0,0,1-9.51-17.44l-6.39-88.11a24.12,24.12,0,0,1,15.08-24.12l72.05-29.24a23.26,23.26,0,0,1,17.52-.2,6.35,6.35,0,0,1,.65.23v0l72.17,29.24a24.19,24.19,0,0,1,15,24.11h0l-6.4,88.11a24.27,24.27,0,0,1-9.39,17.42l-65.79,50.13A24.23,24.23,0,0,1,382,482.38Zm0-205.88a14.06,14.06,0,0,0-5.36,1.08l-72.09,29.24a14.28,14.28,0,0,0-8.94,14.29L302,409.22a14.26,14.26,0,0,0,5.63,10.31l65.72,50.14a14.42,14.42,0,0,0,17.35,0l65.75-50.1A14.39,14.39,0,0,0,462,409.23l6.4-88.11a14.32,14.32,0,0,0-8.87-14.31l-71.84-29.1a4.34,4.34,0,0,1-.72-.24A13.09,13.09,0,0,0,382,276.5Zm91.32,45h0Z"/>
          <path d="M382,452a12.15,12.15,0,0,1-7.39-2.49L323,410.21a12.23,12.23,0,0,1-4.78-8.81h0L313,329a12.17,12.17,0,0,1,7.57-12.18l56.85-23.1a12,12,0,0,1,9.17,0l56.93,23.11A12.18,12.18,0,0,1,451.1,329l-5.23,72.36a12.26,12.26,0,0,1-4.77,8.82l-51.71,39.35A12.11,12.11,0,0,1,382,452Zm-53.95-51.36a2.34,2.34,0,0,0,.92,1.72l51.6,39.33a2.4,2.4,0,0,0,2.85,0l51.7-39.35a2.36,2.36,0,0,0,.91-1.71l5.23-72.36a2.34,2.34,0,0,0-1.46-2.35l-56.92-23.11a2.28,2.28,0,0,0-1.76,0l-56.85,23.1a2.34,2.34,0,0,0-1.45,2.34Z"/>
          <path d="M375.64,385.68a4.92,4.92,0,0,1-3.48-1.44l-12-12a4.92,4.92,0,0,1,7-7l8.55,8.55L403,346.43a4.92,4.92,0,1,1,7,7l-30.84,30.85A5,5,0,0,1,375.64,385.68Z"/>
        </g>
      </g>
    </g>
  </g>
</svg>
