<svg xmlns="http://www.w3.org/2000/svg" viewBox="0 0 204.28 244.85">
  <g id="Layer_2" data-name="Layer 2">
    <g id="Object">
      <g>
        <g>
          <polygon points="31.35 0 67.45 36.11 168.17 36.11 168.17 136.82 204.28 172.93 204.28 0 31.35 0"/>
          <path d="M1,36.11V203.26H168.17V136.82L67.45,36.11ZM136.33,178.82H27.47V66.4H32.4V173.89H136.33Z"/>
        </g>
        <g>
          <path d="M14.47,240.72a.55.55,0,0,1,.38.17l1,1.1a8,8,0,0,1-2.82,2.1,9.68,9.68,0,0,1-4,.76,9.4,9.4,0,0,1-3.71-.71,8.14,8.14,0,0,1-2.85-2,9,9,0,0,1-1.82-3.06A11.47,11.47,0,0,1,0,235.17a10.81,10.81,0,0,1,.69-3.93,9.26,9.26,0,0,1,2-3.07,8.79,8.79,0,0,1,3-2,10.29,10.29,0,0,1,3.87-.71,9.15,9.15,0,0,1,3.6.65,9,9,0,0,1,2.69,1.76L15,229.06a.88.88,0,0,1-.21.22.63.63,0,0,1-.34.08.7.7,0,0,1-.37-.12l-.45-.32-.63-.39a5.08,5.08,0,0,0-.84-.4,7.17,7.17,0,0,0-1.14-.31,8.25,8.25,0,0,0-1.49-.12,7.22,7.22,0,0,0-2.79.52,6.19,6.19,0,0,0-2.17,1.49,6.66,6.66,0,0,0-1.42,2.35,8.94,8.94,0,0,0-.51,3.11,9.15,9.15,0,0,0,.51,3.16,7,7,0,0,0,1.39,2.34,5.73,5.73,0,0,0,2.08,1.46,6.54,6.54,0,0,0,2.59.51,11.51,11.51,0,0,0,1.52-.1,6.53,6.53,0,0,0,1.25-.31,5.11,5.11,0,0,0,1.07-.54,8.14,8.14,0,0,0,1-.77A.68.68,0,0,1,14.47,240.72Z"/>
          <path d="M43.44,235.17a10.86,10.86,0,0,1-.68,3.9,8.85,8.85,0,0,1-1.9,3.06,8.45,8.45,0,0,1-3,2,10.58,10.58,0,0,1-7.62,0,8.41,8.41,0,0,1-3-2,8.85,8.85,0,0,1-1.9-3.06,11.55,11.55,0,0,1,0-7.81,9,9,0,0,1,1.9-3.07,8.43,8.43,0,0,1,3-2,10.44,10.44,0,0,1,7.62,0,8.47,8.47,0,0,1,3,2,9,9,0,0,1,1.9,3.07A10.92,10.92,0,0,1,43.44,235.17Zm-2.63,0a9.59,9.59,0,0,0-.48-3.14A6.63,6.63,0,0,0,39,229.69a5.85,5.85,0,0,0-2.11-1.48,7.8,7.8,0,0,0-5.55,0,6,6,0,0,0-2.12,1.48A6.49,6.49,0,0,0,27.85,232a9.59,9.59,0,0,0-.48,3.14,9.46,9.46,0,0,0,.48,3.12,6.49,6.49,0,0,0,1.35,2.34,6,6,0,0,0,2.12,1.47,7.8,7.8,0,0,0,5.55,0A5.82,5.82,0,0,0,39,240.63a6.63,6.63,0,0,0,1.35-2.34A9.46,9.46,0,0,0,40.81,235.17Z"/>
          <path d="M63.2,238.45l.27.71c.09-.25.18-.48.28-.71s.21-.45.33-.68l6.41-11.65a.8.8,0,0,1,.36-.37,1.79,1.79,0,0,1,.53-.06h1.89v18.94H71V230.71c0-.19,0-.38,0-.59s0-.43,0-.65l-6.49,11.84a1,1,0,0,1-.92.6h-.37a1,1,0,0,1-.93-.6l-6.64-11.88c0,.23.05.45.06.67s0,.42,0,.61v13.92H53.55V225.69h1.89a1.79,1.79,0,0,1,.53.06.8.8,0,0,1,.36.37l6.55,11.66A5.86,5.86,0,0,1,63.2,238.45Z"/>
          <path d="M87.31,237.55v7.08H84.76V225.69h5.59a10.47,10.47,0,0,1,3.13.41,5.87,5.87,0,0,1,2.2,1.19,4.65,4.65,0,0,1,1.3,1.85,6.44,6.44,0,0,1,.43,2.42A6.17,6.17,0,0,1,97,234a5.2,5.2,0,0,1-1.36,1.89,6.14,6.14,0,0,1-2.21,1.23,9.38,9.38,0,0,1-3,.45Zm0-2h3a6,6,0,0,0,1.94-.29,4,4,0,0,0,1.41-.81,3.5,3.5,0,0,0,.86-1.25,4.38,4.38,0,0,0,.29-1.6,3.62,3.62,0,0,0-1.12-2.83,4.86,4.86,0,0,0-3.38-1h-3Z"/>
          <path d="M121,244.63h-2a.83.83,0,0,1-.56-.17,1.06,1.06,0,0,1-.32-.43l-1.77-4.58h-8.5L106.13,244a1.05,1.05,0,0,1-.32.42.87.87,0,0,1-.56.18h-2l7.58-18.94h2.6Zm-12.42-7h7.08l-3-7.71a16.49,16.49,0,0,1-.57-1.78c-.09.36-.19.69-.28,1s-.18.57-.27.8Z"/>
          <path d="M131.87,225.77a1.44,1.44,0,0,1,.37.35l11,14.28a5.16,5.16,0,0,1-.05-.67c0-.21,0-.42,0-.62V225.69h2.25v18.94h-1.3a1.13,1.13,0,0,1-.51-.1,1.3,1.3,0,0,1-.4-.36l-11-14.27c0,.22,0,.44,0,.65s0,.41,0,.58v13.5H130V225.69h1.33A1.15,1.15,0,0,1,131.87,225.77Z"/>
          <path d="M163.94,237.1v7.53h-2.55V237.1l-6.95-11.41h2.25a.76.76,0,0,1,.54.17,1.45,1.45,0,0,1,.35.42l4.34,7.37c.17.3.32.6.44.87s.23.54.32.81c.1-.28.2-.55.32-.83a6.31,6.31,0,0,1,.44-.85l4.32-7.37a1.71,1.71,0,0,1,.32-.4.76.76,0,0,1,.54-.19h2.27Z"/>
        </g>
      </g>
    </g>
  </g>
</svg>
