<svg xmlns="http://www.w3.org/2000/svg" viewBox="0 0 238.8 244.2">
  <g id="Layer_2" data-name="Layer 2">
    <g id="Object">
      <g>
        <path d="M174.69,0H58.23L0,100.86,58.23,201.72H174.69l58.23-100.86Zm-5.14,191.28-.44.77H63.81L11.17,100.86,63.81,9.67h.88L76.63,30.34l12.71-22H91L77.47,31.79l6.39,11.08,20-34.55H106L85,44.8l6,10.35L118,8.32h3.34L92.63,58.06l5.42,9.38L132.18,8.32h4.47l-36.37,63,4.93,8.54,41.3-71.53h5.58L108,84.68l4.3,7.45L160.69,8.32h6.7L115.65,97.93l4.15,7.18,51.84-89.79,4.46,7.74-51.84,89.79Z"/>
        <g>
          <path d="M16.55,236.26a4.72,4.72,0,0,1,.89,2.92,4.29,4.29,0,0,1-1.85,3.72,9.31,9.31,0,0,1-5.39,1.3H1V225.69H9.67A8.56,8.56,0,0,1,14.72,227a4.14,4.14,0,0,1,1.77,3.53,4.69,4.69,0,0,1-.63,2.44,4.46,4.46,0,0,1-1.75,1.64A4.85,4.85,0,0,1,16.55,236.26ZM4.43,228.39v5.1H9.3a4.94,4.94,0,0,0,2.76-.64,2.36,2.36,0,0,0,0-3.81,4.94,4.94,0,0,0-2.76-.65ZM14,238.84q0-2.68-4-2.68H4.43v5.35H10Q14,241.51,14,238.84Z"/>
          <path d="M38.52,244.2l-3.78-5.42a6.24,6.24,0,0,1-.71,0H29.85v5.39H26.41V225.69H34a10.24,10.24,0,0,1,4.19.8A6,6,0,0,1,41,228.76a6.33,6.33,0,0,1,1,3.52,6.24,6.24,0,0,1-1,3.59A6,6,0,0,1,38,238.12l4.25,6.08Zm-1.24-14.65a5.31,5.31,0,0,0-3.41-1h-4V236h4a5.19,5.19,0,0,0,3.41-1,3.79,3.79,0,0,0,0-5.46Z"/>
          <path d="M63,239.92H53.78L52,244.2H48.41l8.33-18.51h3.39l8.35,18.51H64.89Zm-1.14-2.7-3.49-8.09-3.47,8.09Z"/>
          <path d="M92.58,225.69V244.2H89.75L79.54,231.67V244.2H76.13V225.69H79l10.2,12.54V225.69Z"/>
          <path d="M102.84,225.69h8.09a11.69,11.69,0,0,1,5.26,1.15,8.46,8.46,0,0,1,3.57,3.25,9.91,9.91,0,0,1,0,9.71,8.4,8.4,0,0,1-3.57,3.25,11.56,11.56,0,0,1-5.26,1.15h-8.09Zm7.93,15.6a7.71,7.71,0,0,0,3.58-.78,5.45,5.45,0,0,0,2.38-2.22,7.08,7.08,0,0,0,0-6.69,5.5,5.5,0,0,0-2.38-2.22,7.83,7.83,0,0,0-3.58-.78h-4.49v12.69Z"/>
          <path d="M159,225.69V244.2h-2.83L146,231.67V244.2h-3.41V225.69h2.83l10.21,12.54V225.69Z"/>
          <path d="M181.28,239.92H172l-1.83,4.28h-3.54L175,225.69h3.39l8.35,18.51h-3.59Zm-1.14-2.7-3.49-8.09-3.47,8.09Z"/>
          <path d="M211.37,244.2l0-12.27-6.08,10.16h-1.53l-6.08-10V244.2h-3.28V225.69h2.83L204.55,238l7.22-12.27h2.83l0,18.51Z"/>
          <path d="M238.8,241.32v2.88H224.91V225.69h13.52v2.88H228.35v4.82h8.94v2.83h-8.94v5.1Z"/>
        </g>
      </g>
    </g>
  </g>
</svg>
