<svg xmlns="http://www.w3.org/2000/svg" viewBox="0 0 313.4 193.94">
  <g id="Layer_2" data-name="Layer 2">
    <g id="Object">
      <g>
        <g>
          <path d="M168.92,163.28a7.75,7.75,0,0,1,1.73,5,7.94,7.94,0,0,1-2.68,6.34q-2.68,2.33-7.78,2.32H146.53V145.13h13.39c3.22,0,5.69.7,7.42,2.12a7.24,7.24,0,0,1,2.59,5.95,7.46,7.46,0,0,1-1.55,4.87,7.26,7.26,0,0,1-4.09,2.48A7.72,7.72,0,0,1,168.92,163.28Zm-16-4.81h5.72a5.41,5.41,0,0,0,3.63-1.06,3.76,3.76,0,0,0,1.24-3,3.88,3.88,0,0,0-1.21-3.06,5.49,5.49,0,0,0-3.75-1.09h-5.63Zm9.92,12.2a3.92,3.92,0,0,0,1.35-3.22,4,4,0,0,0-1.38-3.27,5.87,5.87,0,0,0-3.9-1.15h-6v8.74h6A6,6,0,0,0,162.81,170.67Z"/>
          <path d="M196.22,177l-7.44-12.4H186V177h-6.36V145.13h12.13q5.55,0,8.46,2.7a9.28,9.28,0,0,1,2.9,7.13,9.17,9.17,0,0,1-2,6,9.91,9.91,0,0,1-5.8,3.24L203.25,177ZM186,160.19h5.23q5.46,0,5.46-4.83a4.78,4.78,0,0,0-1.33-3.58,5.74,5.74,0,0,0-4.13-1.29H186Z"/>
          <path d="M231.29,170.56H218.53l-2.25,6.4h-6.72l11.72-31.47h7.26L240.22,177H233.5Zm-1.71-4.83-4.69-13.43-4.69,13.43Z"/>
          <path d="M275.12,177h-6.36l-14.25-21.64V177h-6.35V145.13h6.35L268.76,167V145.13h6.36Z"/>
          <path d="M311.41,169.34a13.77,13.77,0,0,1-5.75,5.61,18.71,18.71,0,0,1-9,2H285.4V145.13h11.31a19.07,19.07,0,0,1,9,2,13.58,13.58,0,0,1,5.75,5.55,18.51,18.51,0,0,1,0,16.7Zm-7.28-.77A10,10,0,0,0,307,161q0-4.92-2.82-7.62c-1.88-1.8-4.53-2.71-8-2.71h-4.41v20.61h4.41Q301.32,171.28,304.13,168.57Z"/>
        </g>
        <g>
          <path d="M102.73,143.84a71.89,71.89,0,0,1-36-9.7l13.93-24a44.17,44.17,0,1,0,0-76.44l-13.93-24a71.92,71.92,0,1,1,36,134.15Z"/>
          <circle cx="73.65" cy="122.26" r="29.27"/>
          <path d="M71.8,193.94A71.8,71.8,0,1,1,127.2,76.46L105.8,94.13a44,44,0,1,0-1.89,58.17l20.22,19A72.09,72.09,0,0,1,71.8,193.94Z"/>
        </g>
      </g>
    </g>
  </g>
</svg>
