<svg xmlns="http://www.w3.org/2000/svg" viewBox="0 0 242.6 247.5">
  <g id="Layer_2" data-name="Layer 2">
    <g id="Object">
      <g>
        <g>
          <path d="M20.91,242.92a7.74,7.74,0,0,0,1.63-.15,5.41,5.41,0,0,0,1.19-.36,4.13,4.13,0,0,0,.84-.49l.61-.49a4.42,4.42,0,0,1,.51-.36,1,1,0,0,1,.52-.15.88.88,0,0,1,.45.1.63.63,0,0,1,.26.21l1.95,2.34A10.74,10.74,0,0,1,25,246.5a12.4,12.4,0,0,1-5.07,1,10,10,0,0,1-4.17-.83,8.75,8.75,0,0,1-3.07-2.28A10,10,0,0,1,10.82,241a14.19,14.19,0,0,1-.64-4.3,16.64,16.64,0,0,1,.48-4.05A15.38,15.38,0,0,1,12,229.07a13.7,13.7,0,0,1,2.09-2.92,12.77,12.77,0,0,1,5.91-3.6,13,13,0,0,1,3.56-.48,11.26,11.26,0,0,1,2.56.26,9.42,9.42,0,0,1,2.08.73,7.79,7.79,0,0,1,2.95,2.56l-1.95,2.25a2.49,2.49,0,0,1-.48.43,1.27,1.27,0,0,1-.71.19,1,1,0,0,1-.53-.14A3.51,3.51,0,0,1,27,228l-.55-.44a4,4,0,0,0-.74-.43,5.07,5.07,0,0,0-1-.34,6.26,6.26,0,0,0-1.39-.13,6.62,6.62,0,0,0-2.93.66A6.93,6.93,0,0,0,18,229.25a9.08,9.08,0,0,0-1.57,3,13.2,13.2,0,0,0-.56,4,9.79,9.79,0,0,0,.38,2.83,6.72,6.72,0,0,0,1.05,2.11,4.65,4.65,0,0,0,1.59,1.32A4.51,4.51,0,0,0,20.91,242.92Z"/>
          <path d="M63.13,233.18a15.7,15.7,0,0,1-.47,3.86,15,15,0,0,1-1.33,3.44,13.92,13.92,0,0,1-2.08,2.88,12.42,12.42,0,0,1-2.75,2.21A13.25,13.25,0,0,1,53.21,247a13.51,13.51,0,0,1-3.74.51,10.8,10.8,0,0,1-4.42-.87,9.81,9.81,0,0,1-3.32-2.35,10.29,10.29,0,0,1-2.09-3.52,12.71,12.71,0,0,1-.73-4.36,15.78,15.78,0,0,1,.47-3.87,15.34,15.34,0,0,1,1.33-3.45,13.9,13.9,0,0,1,2.1-2.88A12.71,12.71,0,0,1,45.56,224a13.25,13.25,0,0,1,3.29-1.42,13.6,13.6,0,0,1,3.76-.5,10.73,10.73,0,0,1,4.4.86,9.57,9.57,0,0,1,3.31,2.36,10.26,10.26,0,0,1,2.08,3.54A12.69,12.69,0,0,1,63.13,233.18Zm-5.7.14a10.08,10.08,0,0,0-.37-2.79A6.12,6.12,0,0,0,56,228.38,4.86,4.86,0,0,0,54.25,227a5.41,5.41,0,0,0-2.32-.48,6.51,6.51,0,0,0-3.06.7,6.84,6.84,0,0,0-2.3,2,9.6,9.6,0,0,0-1.45,3.09,14.63,14.63,0,0,0-.5,4,10,10,0,0,0,.36,2.78A6.07,6.07,0,0,0,46,241.19a4.69,4.69,0,0,0,1.71,1.38,5.5,5.5,0,0,0,2.34.49,6.7,6.7,0,0,0,3.07-.7,6.63,6.63,0,0,0,2.3-2,9.21,9.21,0,0,0,1.46-3.07A14.15,14.15,0,0,0,57.43,233.32Z"/>
          <path d="M86.39,238.5c.19-.38.38-.75.58-1.11s.4-.73.62-1.1l7.62-13.1a1.44,1.44,0,0,1,.85-.71,3.48,3.48,0,0,1,1-.14h4.37l-3.07,24.88H93.47l1.74-14.48c0-.31.09-.65.16-1s.16-.75.25-1.15l-7.48,12.84a2.25,2.25,0,0,1-.89.87,2.68,2.68,0,0,1-1.2.28H85.3a2.18,2.18,0,0,1-1.13-.29,1.54,1.54,0,0,1-.68-.86l-4.37-12.87c0,.38,0,.76-.06,1.12s0,.7-.08,1l-1.71,14.57H72.36l3.07-24.86H80.3a1.43,1.43,0,0,1,.48.07.87.87,0,0,1,.37.25,1.37,1.37,0,0,1,.26.5l4.37,13.11A22.44,22.44,0,0,1,86.39,238.5Z"/>
          <path d="M117,238.84l-1,8.38h-5.53l3-24.88h8.23a11.79,11.79,0,0,1,3.8.54,7.06,7.06,0,0,1,2.6,1.48,5.84,5.84,0,0,1,1.49,2.24,7.87,7.87,0,0,1,.48,2.77,10.93,10.93,0,0,1-.63,3.77,7.84,7.84,0,0,1-1.9,3,8.92,8.92,0,0,1-3.25,2,13.46,13.46,0,0,1-4.64.72Zm1.54-12.35-1,8.16h2.69a4.94,4.94,0,0,0,2-.35,3.29,3.29,0,0,0,1.32-1,3.94,3.94,0,0,0,.72-1.53,7.88,7.88,0,0,0,.23-1.94,4.45,4.45,0,0,0-.2-1.35,2.71,2.71,0,0,0-1.64-1.75,3.92,3.92,0,0,0-1.48-.25Z"/>
          <path d="M157.51,247.22h-4.3a1.85,1.85,0,0,1-1.15-.33,1.28,1.28,0,0,1-.52-.88l-.77-4.47h-8.46L140.47,246a1.9,1.9,0,0,1-.74.85,2.13,2.13,0,0,1-1.21.36h-4.37L146,222.34h5.7Zm-13.64-9.48h6.25l-1.21-7.1c-.11-.59-.22-1.19-.34-1.8s-.22-1.17-.3-1.67c-.09.27-.21.59-.36.93s-.29.69-.43,1-.28.64-.41.92-.23.5-.28.63Z"/>
          <path d="M174.07,222.36a1.48,1.48,0,0,1,.45.12,1.27,1.27,0,0,1,.35.27,2.39,2.39,0,0,1,.3.44l8.73,15.37c0-.39.06-.78.1-1.14s.09-.71.12-1l1.68-14.06h4.92l-3.08,24.88h-2.9a2.83,2.83,0,0,1-1.08-.18,1.63,1.63,0,0,1-.73-.74L174.24,231c0,.32-.05.62-.08.92s-.06.57-.08.84l-1.71,14.51h-4.92l3.08-24.88h2.94Z"/>
          <path d="M212.66,237.69l-1.17,9.53h-5.57l1.18-9.48-6.41-15.4h4.95a1.72,1.72,0,0,1,1.12.33,1.88,1.88,0,0,1,.59.88l2.39,7.53c.16.5.31,1,.44,1.45s.24.92.33,1.35c.22-.43.46-.88.72-1.34l.84-1.46,4.23-7.53a2.68,2.68,0,0,1,.75-.84,1.93,1.93,0,0,1,1.2-.37h4.61Z"/>
        </g>
        <g>
          <g>
            <polygon points="242.6 195.99 165.07 57.52 116.53 144.21 145.52 195.99 242.6 195.99"/>
            <polygon points="135.31 195.99 111.43 153.32 87.54 195.99 135.31 195.99"/>
          </g>
          <polygon points="108.98 0 0 195.99 76.26 195.99 147.11 68.11 108.98 0"/>
        </g>
      </g>
    </g>
  </g>
</svg>
