<svg xmlns="http://www.w3.org/2000/svg" viewBox="0 0 261.09 207.16">
  <g id="Layer_2" data-name="Layer 2">
    <g id="Object">
      <g>
        <g>
          <path d="M19.86,173.12a6.93,6.93,0,0,1,1.54,4.46A7.07,7.07,0,0,1,19,183.2q-2.39,2.06-6.9,2.06H0V157H11.88a10.19,10.19,0,0,1,6.58,1.88,6.46,6.46,0,0,1,2.3,5.28,6.58,6.58,0,0,1-1.38,4.32,6.39,6.39,0,0,1-3.62,2.2A6.93,6.93,0,0,1,19.86,173.12ZM5.64,168.86h5.08a4.83,4.83,0,0,0,3.22-.94,3.35,3.35,0,0,0,1.1-2.7A3.45,3.45,0,0,0,14,162.5a4.89,4.89,0,0,0-3.32-1h-5Zm8.8,10.82a3.48,3.48,0,0,0,1.2-2.86,3.58,3.58,0,0,0-1.22-2.9,5.27,5.27,0,0,0-3.46-1H5.64v7.76H11A5.34,5.34,0,0,0,14.44,179.68Z"/>
          <path d="M44.07,185.26l-6.6-11H35v11H29.36V157H40.11q4.92,0,7.5,2.4a8.23,8.23,0,0,1,2.58,6.32,8.12,8.12,0,0,1-1.78,5.36A8.76,8.76,0,0,1,43.27,174l7,11.28ZM35,170.38h4.63c3.23,0,4.84-1.42,4.84-4.28a4.2,4.2,0,0,0-1.18-3.18,5.08,5.08,0,0,0-3.66-1.14H35Z"/>
          <path d="M75.19,179.58H63.87l-2,5.68h-6l10.4-27.92h6.44l10.36,27.92h-6Zm-1.52-4.28-4.16-11.92L65.35,175.3Z"/>
          <path d="M114.06,185.26h-5.64l-12.63-19.2v19.2H90.15V157h5.64l12.63,19.36V157h5.64Z"/>
          <path d="M146.26,178.5a12.37,12.37,0,0,1-5.1,5,16.62,16.62,0,0,1-7.94,1.78h-10V157h10a17,17,0,0,1,7.94,1.74,12.11,12.11,0,0,1,5.1,4.92,16.48,16.48,0,0,1,0,14.82Zm-6.46-.68a10.34,10.34,0,0,0,0-13.48q-2.51-2.4-7.06-2.4h-3.92v18.28h3.92Q137.3,180.22,139.8,177.82Z"/>
        </g>
        <path d="M78.72,0S151.53,27.49,150,67.26h0v67.27S77.2,107,78.74,67.26h0Z"/>
        <g>
          <path d="M214.84,118.79a99.62,99.62,0,0,1,46.25-17.05V80.68a94.89,94.89,0,0,0-46.25,38.11Z"/>
          <path d="M206.57,125.13a98.92,98.92,0,0,1,54.52-48.87V15.59S157.41,54.73,159.61,111.38h0v95.78s4.63-1.75,11.89-5c0-3.07.08-6.16.33-9.26A99.53,99.53,0,0,1,206.57,125.13Z"/>
          <path d="M196.72,160.71a99.21,99.21,0,0,1,3.62-19.61,92.44,92.44,0,0,0-21.68,52.33c-.15,1.83-.23,3.65-.27,5.47,5.89-2.84,12.74-6.36,19.94-10.51A98.71,98.71,0,0,1,196.72,160.71Z"/>
          <path d="M200.84,161.05a94.72,94.72,0,0,0,1.28,25.11c28.33-16.95,60.17-43.13,58.94-74.78h0v-2.7a93,93,0,0,0-53.9,25.17A94.69,94.69,0,0,0,200.84,161.05Z"/>
        </g>
      </g>
    </g>
  </g>
</svg>
