<?xml version="1.0" encoding="utf-8"?>
<!-- Generator: Adobe Illustrator 26.0.1, SVG Export Plug-In . SVG Version: 6.00 Build 0)  -->
<svg version="1.1" id="Layer_1" xmlns="http://www.w3.org/2000/svg" xmlns:xlink="http://www.w3.org/1999/xlink" x="0px" y="0px"
	 viewBox="0 0 311 321.6" style="enable-background:new 0 0 311 321.6;" xml:space="preserve">
<style type="text/css">
	.st0{fill:#231F20;}
	.st1{clip-path:url(#SVGID_00000106834977829652272160000016705180008478829488_);}
</style>
<g transform="matrix(.26458333 0 0 .26458333 .000004 -13.854165)">
	<path class="st0" d="M694.6,645.4c25.1-40.2,47.5-75.9,102.4-104.9c-5.8-3.5-14.1-8.9-18.4-11.8c-21.4,9.3-42.5,28-60.5,46.8
		c-41.4,43.1-37.7,68-81.5,84.8c-11,4.2-24.4,8.7-41.6,12.7c-10.2-31.3-35.6-62.4-62.6-62.4c-18.7,0-40.2,9.8-65.1,20.7
		c-29.2,12.9-56,27.6-64.5,33.2l11.4,15.4c8.7-4.8,33.8-17.2,58.9-28c21.8-9.3,41.4-17,54.7-17c21.3,0,35.2,24.2,42.9,43.7
		c-28,6.6-74,8.3-87.9,8.3c-6.4,0-8.7,1-11,2.9c-2.1,1.9-3.7,5.2-4.8,9.8l-1.7,7.1h14.9c77.5,0,150.7-12.2,197.8-40.8
		c6.6,1.9,12.4,3.1,19.9,3.1c27,0,54.7-14.7,72.2-28.2c6.2-4.8,7.7-9.1,7.7-13.9c0-2.3-0.2-4.4-0.4-6.4l-0.8-8.1
		c-24.9,19.7-45.6,34.4-71.3,34.4C700.6,646.6,697.3,646.2,694.6,645.4 M850.7,567.4c-31.1,65.5-78.4,113.2-126.9,140.7
		c-23,13.1-43.7,21.6-88.5,21.6h-96.8c-34.6,0-56.4,4.6-73.4,8.9c-18.3,4.8-29.9,9.5-48.3,9.5c-27.4,0-52.6-13.5-64.9-26.3l22.8-18
		l-11.4-15.1c-6.6,4.8-87.7,64.7-104.7,78.1l-1-0.6c0.4-4.2,0.4-7.9,0.4-11.6c0-45.6-21.2-56.6-53.3-69.5L183,698
		c44.1,14.7,55.1,26.5,55.1,59.5c0,26.1-9.3,36.5-22.8,44.3c-13.9,8.1-31.1,11.8-46.2,11.8c-6.4,0-9.3,1.2-11.6,3.5
		c-2.5,2.5-3.7,6.2-3.7,11.4v7.3h5.2c27.8,0,53.5-4.3,81.7-26.5l91.8-71.7c13.1,14.9,46,35.7,85,35.7c22,0,36.1-5.4,56.4-10.6
		c15.8-3.9,31.1-7.5,64.7-7.5h97.2c49.7,0,73.8-10.4,100.3-25.3c57.6-32.3,106.8-87.1,134.5-149.9
		C863.3,575.5,856.5,571.4,850.7,567.4 M465.8,493.4c26.1-18.5,53.1-20.5,74.8-20.5c13.1,0,28.4,1.9,44.5,3.9
		c13.1,1.7,24.9,2.9,39,2.9c28.4,0,57-10.4,69.4-15.8c3.5,4.4,9.5,10.2,14.3,14.3c-6,3.7-44.1,24.4-83.1,24.4
		c-17.2,0-33.6-2.1-47.7-3.9c-12.5-1.7-25.9-3.1-39-3.1c-14.3,0-43.1,4.1-60.9,12.6L465.8,493.4z M167.5,489.7
		c11.2,0,20.3-3.7,29-7.3c8.3-3.3,16.6-6.6,27.8-6.6c26.5,0,59.3,12.9,88.1,25.1c1.7,0.6,3.5,1,5.4,1c4.6,0,8.1-2.1,10.4-6.4
		l3.7-6.8c-31.7-18.5-82.3-38.1-108.6-38.1c-12,0-20.7,3.1-29,6.4c-9.3,3.7-17.4,7.7-25.9,7.7c-20.9,0-74.6-20.7-74.6-40.8
		c0-23.6,85.4-32.7,94.7-32.7l8.5-19.3c-62,0-135.8,21.8-135.8,50.6c0,8.3,4.8,12.5,4.8,20.1c0,10.4-4.8,17.4-4.8,29
		c0,7.7,4.6,17.4,10,25.9c5.8,8.9,12.7,14.7,12.7,22.2c0,5.6-3.7,12.2-3.7,25.3c0,28,16,45,47,78.4l6.2,6.6
		c-25.7,10-73.6,30.7-84.7,35.5C9.8,681.4,0,701.1,0,732.2c0,12,0,25.7,0.8,37.9h7.5c15.6,0,17.4-9.3,17.4-18.2
		c0-6-0.2-12.9-0.2-20.3c0.2-17.2,0.8-32.5,28.6-45c11.2-5,66.1-27.3,107-44.8c12-5.2,23.2-9.5,35.6-9.5c13.9,0,29.8,6,49.7,17.8
		c16.8,10,34.4,23.4,48.3,39l17.6-13.5c-15.1-17.8-36-33.8-57-46.2c-20.9-12.5-39.6-19.7-55.3-19.7c-6.8,0-12.4,1.2-17.2,2.5
		c-5.6,1.5-10.8,3.1-17.4,3.1c-7.7,0-14.1-1.9-23.5-12.6c-3.5-3.9-25.9-29.5-30.6-36.9c-2.3-3.5-6.4-10.6-6.4-18.9
		c0-3.5,0.6-7.7,2.7-11.4c19.3,14.9,43.1,24,72.1,27.6l-3.9-19.7c-41.7-11-86-47.7-86-71.3c0-5,1.2-8.5,3.1-12.8
		C109,474.2,147,489.7,167.5,489.7 M539.1,395h105.9l-7.9-19.1h-88.1L539.1,395z M1080.1,259.4c24.9-10.6,69.5-28.4,95.1-37.7v-25.3
		c-51.6,19-142.2,56.6-203.9,90.1c1.7,2.1,12.4,17.2,13.7,19.1c26.1-10.8,49.5-17.8,70.7-17.8c29.6,0,53.9,0,94.5-9.5v-19.1
		c-22.8,4.1-47,9.1-62.8,9.1c-9.3,0-12-1.2-12-4.4C1075.4,262.1,1076.6,260.9,1080.1,259.4 M1024.8,184.2
		c-16.2,0-20.7-8.9-20.7-21.6c0-26.1,16.4-63.6,26.7-85h-25.1c-13.1,25.3-64.5,106.3-92.2,139.9l16,17.2
		c14.9-16.6,31.3-44.8,49.1-72.6h3.3c0,1.5-0.2,3.1-0.2,4.6c0,23.4,12,40.8,41.6,40.8c18.3,0,46.8-9.1,73.8-18.2
		c22.4-7.7,42.9-15.6,53.1-18.5V146c-11.6,3.5-35.2,12.7-59.7,21.1C1064.8,176.1,1039.5,184.2,1024.8,184.2 M476.4,600.2l-5-19.1
		c42.7-23,81.7-41.5,143.9-47.5c1.2,23.8-0.4,53.9,17.2,53.9c16.2,0,51.4-41.6,92-93.9c3.7,3.5,9.8,7.3,15.1,11.4l-10.4,13.5
		c-39.6,51-73.4,94.5-101.2,94.5c-25.9,0-35.6-30.5-36-53.3C552.4,563.7,515.1,577,476.4,600.2 M448.1,590.9
		c-27.3,15.3-55.8,25.5-80.8,25.5c-28,0-52.9-12-73.6-43.3c-8.7-13.3-15.5-29.9-23.8-44.6c-10-17.4-20.7-26.7-39.6-26.7
		c-17.2,0-34,7.1-51.8,14.7l0.8,3.9c1.5,6.4,3.9,11,10,11c2.7,0,5.4-1.2,6.8-1.7c10-3.1,17.2-5.8,27.3-5.8c15.6,0,23,9.1,33.6,31.5
		l3.9,8.3c-10.8,3.7-36.1,5.6-54.9,5.6h-8.9l1.5,8.9c0.6,3.7,2.1,6.8,5.2,8.3c3.7,1.9,9.1,2.1,18.5,2.1c23.6,0,40.8-2.9,50.8-5.4
		c25.5,37.9,60.5,52.4,94.3,52.4c28.8,0,58-10.6,86-25.9L448.1,590.9z M371,583c-28,0-40.4-13.3-40.4-30c0-29.4,51.6-58.2,98-76.1
		l12,15.5c-28.6,11.4-86.2,35.9-86.2,57c0,7.5,4.4,12.9,21.8,12.9c30.3,0,62.8-14.7,92.9-29.4c2.3-1,5-2.1,7.5-2.1
		c3.9,0,6.4,1.2,9.3,5.4l5,6.8C455.8,562.2,412.1,583,371,583 M1011.7,1124c2.7-25.5,22.2-44.6,51.8-44.6c29,0,49.1,19.1,51.8,44.6
		H1011.7z M1063.4,1033.2c-71.9,0-112.3,56.2-112.3,115.5c0,63.2,43.3,118.8,112.8,118.8c34.6,0,68.6-13.1,88.1-36
		c8.5-10,15.4-23.9,15.4-32.4c0-2.9-0.6-5.4-2.3-7.3c-1.7-2.1-4.2-3.3-8.5-3.3H1123c-6.6,0-11.2,2.5-14.5,7.5
		c-9.8,14.3-23.9,21.8-44.6,21.8c-31.1,0-51.2-23.6-52.6-49.5H1156c6.4,0,11-1.5,14.1-4.6c3.5-3.3,5.2-8.1,5.2-17
		c0-27.1-8.5-55.3-26.3-76.9C1130.7,1047.9,1102.5,1033.2,1063.4,1033.2 M1154.8,1001.5c4.4,0,7.7-1.2,10.2-3.3
		c2.7-2.5,3.9-5.8,3.9-10.8v-19.3c0-7.5-1.5-11.2-3.9-13.9c-2.3-2.5-6-3.9-10.2-3.9c-3.3,0-6.6,0.4-12.2,1l-165.4,16.4
		c-4.8,0.4-7.1,1.9-8.7,3.7c-1.9,2.1-2.7,4.8-2.7,8.5v10.8c0,4.1,0.8,6,2.3,7.7c1.9,2.1,4.6,3.1,8.3,3.1L1154.8,1001.5z
		 M452.7,321.4c0-2.1,0.2-4.6,1-7.1c1.7-5.4,5.2-10.6,13.9-10.6c3.9,0,8.3,1,11.8,3.5c3.1,2.1,4.4,4.8,4.4,7.5
		c0,8.9-14.9,19.3-22.4,19.3C456,334,452.7,328.8,452.7,321.4 M404,193.5c0-8.9,5.4-18.7,15.8-18.7c4.6,0,10,1.9,13.9,5.6
		c2.3,2.1,3.3,4.4,3.3,6.6c0,5-4.8,9.8-10.4,13.1c-4.3,2.5-8.9,4.2-12.8,4.2C407.3,204.3,404,200.3,404,193.5 M614.4,133
		c0-7.3,3.7-20.3,17.2-20.3c4.6,0,8.9,1,12.4,2.7c5,2.3,8.3,5.6,8.3,9.1c0,3.7-3.7,7.5-9.3,12c-5.8,4.8-13.3,9.1-19.3,9.1
		C616.4,145.6,614.4,138.8,614.4,133 M82.7,293.8c-2.7,1-3.9,1.7-5.4,1.7c-2.3,0-3.3-1.9-3.3-3.3s0.6-2.3,2.1-3.5
		c25.5-19.9,47.9-27.8,78.8-33l3.7,12.4L82.7,293.8z M223.2,197.6l-11.2-6.8c7.2-17.2,16.2-33,26.7-44.8
		c7.5-8.5,14.5-15.3,22.4-22.2c1.9-1.5,2.9-2.7,4.8-2.7c2.1,0,3.5,1.7,3.5,3.3c0,0.8-0.4,1.9-1.2,3.1
		C255.6,147.3,230.9,186.3,223.2,197.6 M76.3,128.2c-1.9-1.7-2.3-2.7-2.3-3.9c0-1.5,1-3.1,3.3-3.1c0.8,0,1.7,0.2,2.7,0.6
		c15.4,6.2,28.4,13.5,40,22.4c9.7,7.5,19.3,16.6,28.6,27.6l-8.7,9.9C129.2,172.8,94.3,143.5,76.3,128.2 M228.2,315.4
		c3.1-5.2,12.4-17.8,16.2-21.8c-16-32.3-42.1-63.2-53.5-75.5l-9.5,9.3C192.4,243.5,210.8,274.3,228.2,315.4 M339.5,1124
		c2.7-25.5,22.2-44.6,51.8-44.6c29,0,49.1,19.1,51.8,44.6H339.5z M895.3,409.3c-1.5-1.9-2.7-2.7-4.4-2.7c-2.5,0-3.7,1.7-3.7,3.5
		c0,2.9,2.1,6.4,7.3,15.1c15.8,26.8,35.2,53.7,59.3,79c25.9,27.6,56.4,53.3,88.9,76.3l10.2,7c1.5,1,2.5,1.7,3.7,1.7
		c2.1,0,3.5-2.1,3.5-3.7c0-1-0.4-2.1-1.7-3.1c-30.2-27.6-62.8-61.2-93.3-93.5C941.3,463.4,916.8,436.4,895.3,409.3 M363.4,396.6
		c-11.8,16-28,36.9-40.4,59.1c3.9,1.9,17,8.9,21.6,11.4c14.3-21.6,34.2-48.1,47.3-68.2c11.8-18.2,16.6-26.1,17.4-50.6
		c0.2-4.1,0.2-8.1,0.6-12c1-12.7,4.4-25.5,16.4-37.3c8.9-8.9,21.8-13.5,34.6-13.5c12.5,0,19.7,3.5,30.5,3.5c7.7,0,13.3-1.9,18.2-3.7
		l3.9-1.5l-9.5,22.8l22.4,9.1c-14.3,8.9-45.6,47.3-45.6,92.7c0,16.4,2.5,31.5,6,45c0.4,1.5,1.2,2.9,3.5,2.9c2.1,0,3.5-1.2,3.7-3.5
		l0.2-4.8c0.6-13.9,1.7-35.9,7.3-55.5c9.3-33.2,34.4-64.3,59.5-79.2l-35.6-15.6l15.4-37.5l-16.8,3.5c-10.2,2.1-17.6,3.9-26.5,3.9
		c-5.8,0-12.5-0.8-20.3-2.7c-6-1.5-12.4-2.7-21.6-2.7c-16.4,0-34,6.2-46,17.8c-22,20.9-23.2,43.5-24.7,63.6
		C382.8,370.5,377.9,377.1,363.4,396.6 M315.7,255.5c-9.7,13.9-16.8,20.7-38.9,46.8c-29.2,34.6-44.6,62.6-70.1,124.8
		c4.2-0.4,10.2-0.8,16.8-0.8c3.3,0,6,0,10.4,0.2l3.1-6.6c14.3-30.7,33.6-72.2,60.5-104.1l9.3-11c27.8-32.6,45-51.8,55.8-96.2
		c3.7-15.8,6.8-29.9,17.4-40c9.5-9.1,21.5-13,33.8-13c10.4,0,18,2.5,29.2,7.3c10.2,4.3,13.9,5.2,24.7,5.2c3.7,0,6.4-0.2,8.9-0.4
		L462,187.1l19.7,13.9c-24.7,7.3-37.7,31.1-42.1,42.1c-0.8,2.3-1.2,3.7-1.2,5.2c0,1.7,0.8,3.3,3.3,3.3c2.7,0,4.8-2.1,8.3-6.2
		c12-14.5,21.5-24.5,65.9-38.3l-31.3-23.6l23.6-34.6h-22.2c-14.1,0-23.4-0.2-35.6-5.8c-16.6-7.7-25.1-11-39.8-11
		c-18,0-34.4,6.4-47.9,18.9c-15.6,14.3-20.3,33.4-25.9,54.3C332.5,221.3,327.3,239.1,315.7,255.5 M869.6,1244.8
		c0,5.4,1.7,9.3,4.2,12.5c3.1,3.7,7.5,6,13.9,6h24.7c6.4,0,10.8-2.3,13.9-6c2.5-3.1,4.1-7.1,4.1-12.5V973.5c0-5.4-1.7-9.3-4.1-12.5
		c-3.1-3.7-7.5-6-13.9-6h-24.7c-6.4,0-10.8,2.3-13.9,6c-2.5,3.1-4.2,7.1-4.2,12.5V1244.8z M742.7,1041.1h-11.6
		c-4.4,0-7.7,1.2-10.2,3.3c-2.7,2.5-3.9,5.8-3.9,10.8v14.3c0,5,1.2,8.3,3.9,10.8c2.5,2.1,5.8,3.3,10.2,3.3h11.6V1187
		c0,26.5,7.3,43.1,20.7,56.4c12.5,12.2,28.6,19.9,56.8,19.9h17.6c4.4,0,7.7-1.2,10.2-3.3c2.7-2.5,4.4-5.8,4.4-10.8v-18.1
		c0-5-1.7-8.3-4.4-10.8c-2.5-2.1-5.8-3.3-10.2-3.3h-2.5c-11.2,0-18.9-2.9-24.1-7.9c-6.2-5.8-9.3-14.7-9.3-26.3v-99.3h37.8
		c4.3,0,7.7-1.2,10.1-3.3c2.7-2.5,3.9-5.8,3.9-10.8v-14.3c0-5-1.2-8.3-3.9-10.8c-2.5-2.1-5.8-3.3-10.1-3.3h-37.5v-67.6
		c0-5.4-1.7-9.3-4.2-12.5c-3.1-3.7-7.5-6-13.9-6h-23.4c-6.4,0-10.8,2.3-13.9,6c-2.5,3.1-4.2,7.1-4.2,12.5V1041.1z M255.4,93
		c4.4-9.5,13.9-16.2,25.3-16.2c15.6,0,28,12,28,28c0,9.3-4.4,17.4-11.2,22.4c1.5,5.4,2.5,10.2,2.5,14.7c0,17.4-10.4,29.6-29.5,36.1
		c-2.5,10.6-7,20.1-14.5,27.2c-12.5,12-25.1,12-25.1,17c0,2.7,1.9,4.4,7,4.4c23,0,45.6-12.9,48.3-34.2c22-7.5,35.2-29.7,35.2-47.3
		c0-4.6-0.4-8.5-2.3-12.2c6-5.8,13.1-15.8,13.1-30.5c0-12.9-5.6-25.9-15.6-35.4c-8.7-8.5-20.9-14.1-35.2-14.1
		c-20.7,0-34.2,11.2-41.9,22.2c-22.6,0-51.8,25.1-51.8,60.9h-3.1c-2.1-12.4-14.9-20.7-25.7-21.4C150.3,88.4,130.6,66,98.2,66
		c-3.7,0-8.3,0.2-12.2,0.8c-9.5-8.7-20.1-14.1-34.8-14.1C23,52.8,0,75.3,0,104c0,17.8,8.1,30.1,23.4,40.8c0,0-0.2,2.3-0.2,3.3
		c0,22.8,24.9,58.5,61.8,58.5c0,5.8,7.3,13.7,15.3,15.1v2.9h-3.1c-50.8,0-72.4,24.5-72.4,40.8C9.8,271.6,0,288.4,0,304
		c0,30.9,22.6,52.9,52.4,52.9c10,0,20.1-3.9,27.2-9.3c5.2,1.9,11.8,2.9,18.6,2.9c14.3,0,30.3-5,41.5-21.4c1.7,0.2,3.1,0.2,4.8,0.2
		c18.3,0,34-12,42.3-27.8c2.1-3.9,2.9-7,2.9-9.3s-1-4.2-3.3-4.2c-2.9,0-3.3,2.7-8.5,7.5C166.2,306,148.4,310,130.2,310
		c-8.9,13.1-19.9,19.9-32.5,19.9c-9.3,0-16.6-2.5-24-7.5c-6,6.6-13.5,9.3-20.8,9.3c-16.4,0-28-11.4-28-28c0-11.6,7.5-22,17.8-25.9
		c1.9-20.5,23.9-34.4,51.2-34.4c3.5,0,7.1,0.2,10.8,0.6c4.2-6.6,14.1-13.7,28.2-15.5c2.9-0.4,5.2-0.6,6.8-1.5
		c1.7-0.8,2.5-2.5,2.5-4.4c0-1.7-0.6-3.1-2.3-4.1c-1.5-0.8-3.9-1.2-6.8-1.9c-13-2.5-28.6-10.6-36.5-30.3c-31.3,0-54.3-25-54.3-53.3
		v-1.9c-10.4-4.2-17.4-14.1-17.4-25.9c0-15.5,12.2-28,27.8-28c9.3,0,17.4,4.6,22.6,11.4c4.4-1.2,9.3-1.7,14.1-1.7
		c23.2,0,48.1,14.7,52.9,43.3c29.8,2.7,36.9,28,38.7,38.6c1,5.4,1.9,10,5.4,10c3.7,0,4.6-4.2,5.8-9.8c2.3-10.6,6.2-19.1,14.1-25.7
		C206.3,116.4,226.6,93,255.4,93 M613.6,1033.2c-56.8,0-94.1,26.9-94.1,70.1c0,15.3,5.6,27.7,14.7,37.5
		c10.6,11.4,25.7,19.3,47.7,24.9l47.5,12c13.1,3.3,24.7,7.2,24.7,18.6c0,17.6-18.7,23.7-38.5,23.7c-9.8,0-19.9-1.9-28.2-6
		c-5.8-2.9-10.8-7-14.3-12.6c-3.1-4.8-4.2-8.3-8.9-11c-2.9-1.7-6.4-1.9-11.2-1.9h-25.7c-5.6,0-8.3,1.7-10.2,3.9
		c-1.9,2.3-2.5,5.6-2.5,8.9c0,8.3,2.9,18.7,9.8,28c15.8,21.2,48.7,38.1,90.8,38.1c41.4,0,98.9-17.2,98.9-72.8
		c0-14.3-4.2-26.5-11.8-36.5c-9.8-12.6-23.6-21.3-47.2-27.3l-47-12c-19.5-5-28.6-8.5-28.6-20.5c0-11.6,10.4-20.9,34.4-20.9
		c14.1,0,26.9,3.1,35.2,11.8c6.8,7.3,5.6,11,11,13.9c3.3,1.7,7.1,1.7,12.9,1.7h23.4c3.7,0,6.4-0.6,8.5-2.9c1.7-1.9,2.7-4.8,2.7-9.5
		c0-10.8-7.1-24.7-19.5-35.2C671.2,1042.7,645.1,1033.2,613.6,1033.2 M391.1,1033.2c-71.9,0-112.3,56.2-112.3,115.5
		c0,63.2,43.3,118.8,112.8,118.8c34.6,0,68.6-13.1,88.1-36c8.5-10,15.3-23.9,15.3-32.4c0-2.9-0.6-5.4-2.3-7.3
		c-1.7-2.1-4.2-3.3-8.5-3.3h-33.4c-6.6,0-11.2,2.5-14.5,7.5c-9.8,14.3-23.8,21.8-44.5,21.8c-31.1,0-51.2-23.6-52.7-49.5h144.3
		c6.4,0,11-1.5,14.1-4.6c3.5-3.3,5.2-8.1,5.2-17c0-27.1-8.5-55.3-26.3-76.9C458.1,1047.9,430.3,1033.2,391.1,1033.2 M967,333.8
		c-77.1-115-144.9-153.8-164-172c-20.9-20.1-36.9-42.9-47-53.9c-22.6-24.7-51.8-55.1-99.9-55.1c-46.4,0-77.1,30.3-87.1,56.4
		c-2.9,7.5-5.2,16.6-7.3,19.9c-4.6,7.5-25.1,42.5-33.6,56.4h38.4l-18.7,35.2c21.8-4.8,37.3-8.3,58-8.3c18.5,0,31.7,4.4,37.5,16
		c10.8,21.6,10.8,86.9,29,136c17,46.2,58.5,91.4,105.1,126c0.6,0.4,1.2,0.6,2.1,0.6c2.3,0,3.7-1.7,3.7-3.3c0-1.2-0.4-2.1-1.5-3.1
		c-39-39-70.7-82.1-87.7-129.4c-16.8-46-14.1-110.7-28.8-139.5c-9.8-19.1-30.5-24.1-49.5-24.1c-15.4,0-29.6,3.1-36.3,4.6l16.8-28.4
		h-28.4c6-10.6,12.2-20.3,15.4-26.1c2.7-5,3.7-11.2,7.1-19.7c10.8-27.1,34.6-44.3,65.7-44.3c38.9,0,61.8,25.1,84.3,50.2
		c10.4,11.6,27.4,35.8,47.1,53.9c13.5,12.5,39.2,26.4,78.8,67.2c22.8,23.6,49.3,54.3,77.3,95.4c100.1,146.5,165.8,275.7,202.5,376.4
		l-0.6,0.4C1040.4,649.7,949.4,582.4,876,499.2c-52-59.1-97.2-127.5-136.6-214.7c-2.7-5.8-5-11.2-7.5-16.8c-1-2.3-2.1-2.9-3.7-2.9
		c-2.1,0-3.5,1.5-3.5,3.5c0,2.3,1,7.3,3.3,17.2c20.9,90.3,79,171.4,141,238.8c61.8,67,131.6,124.6,189,166.4l44.8,128.1
		c1,3.1,2.3,6.4,2.3,9.5c0,2.3-0.6,4.2-2.1,5.4c-1.2,1.2-2.9,1.9-6.6,1.9h-13.5c-5.8,0-8.1-0.8-10.2-2.5c-2.1-1.7-3.5-4.2-4.6-7.1
		c-3.9-12-27.6-79.4-32.1-93.1c-0.8-2.5-2.3-3.3-3.9-3.3c-2.1,0-3.5,1.7-3.5,3.5c0,1.7,0.6,3.5,1.7,9.3c6,30.7,13.1,65.1,16,78.1
		c1.2,6,2.7,11.6,2.7,15.8c0,3.7-0.8,5.8-3.9,8.9l-13.9,14.1c-3.3,3.3-5.2,4.2-7.9,4.2c-3.3,0-6-2.3-7.3-8.1
		c-15.8-73.6-39.6-164.8-45.8-190.1c-1.5-5.6-2.5-8.7-5.8-8.7c-2.9,0-3.9,2.1-3.9,4.6c0,1.9,0.4,4.2,0.6,5.8
		c3.7,26.1,18.9,121.3,35.2,208.1c2.9,14.9,8.5,23.2,21.3,23.2c5.8,0,11.4-2.3,16.6-7.3c8.5-8.5,11-10.8,21.1-20.7
		c7.3-7.1,12.2-9.9,24.7-9.9h30.7c7.3,0,11.2-1.9,14.7-5.2c3.3-3.1,5.4-7.5,5.4-13.7c0-6.4-1.7-11.6-3.9-18
		c-7.9-21.1-33.2-92.6-40.6-112.8l0.6-0.4c25.9,19.7,63.6,44.8,80.2,44.8c5.2,0,8.3-2.3,8.3-10.4
		C1175.3,706.7,1111.9,549.8,967,333.8 M202.1,961.9c-2.9,3.5-4.6,7.5-4.6,14.3v188.2h-1c0,0-103-183.6-108-192.1
		c-3.5-6-7.5-10.2-12.7-13.3c-5.2-2.9-10.6-4.8-20.9-4.8h-34c-7.9,0-12.8,2.7-16.3,6.8c-2.9,3.5-4.6,7.5-4.6,14.3v266.8
		c0,6.8,1.7,10.8,4.6,14.3c3.5,4.2,8.5,6.8,16.3,6.8h19.3c7.9,0,12.9-2.7,16.4-6.8c2.9-3.5,4.6-7.5,4.6-14.3v-192.8h1
		c0,0,106.9,189.5,111.3,196.5c6,9.9,16.2,17.4,30.7,17.4h33c7.9,0,12.9-2.7,16.4-6.8c2.9-3.5,4.6-7.5,4.6-14.3v-240.7h433
		c4.4,0,7.7-1.2,10.2-3.3c2.7-2.5,3.9-5.8,3.9-10.8v-18.2c0-5-1.2-8.3-3.9-10.8c-2.5-2.1-5.8-3.3-10.2-3.3H218.5
		C210.6,955,205.6,957.7,202.1,961.9"/>
	<g>
		<defs>
			<rect id="SVGID_1_" x="-1783.5" y="2988.3" width="1356.2" height="1671.2"/>
		</defs>
		<clipPath id="SVGID_00000147916305637093099700000010084832675656211132_">
			<use xlink:href="#SVGID_1_"  style="overflow:visible;"/>
		</clipPath>
		
			<g transform="matrix(7.0555847 0 0 -7.0555847 -3020.0097 5757.0769)" style="clip-path:url(#SVGID_00000147916305637093099700000010084832675656211132_);">
			
				<text transform="matrix(0 -0.5357 -0.5357 0 -104.0514 687.1656)" style="fill:#63513D; font-family:'ArialMT'; font-size:17.0064px;">N</text>
			
				<text transform="matrix(0 -0.5357 -0.5357 0 -104.0514 680.2682)" style="fill:#63513D; font-family:'ArialMT'; font-size:17.0064px;">e</text>
			
				<text transform="matrix(0 -0.5357 -0.5357 0 -104.0514 675.2598)" style="fill:#63513D; font-family:'ArialMT'; font-size:17.0064px;">s</text>
			
				<text transform="matrix(0 -0.5357 -0.5357 0 -104.0514 670.7337)" style="fill:#63513D; font-family:'ArialMT'; font-size:17.0064px;">t</text>
			
				<text transform="matrix(0 -0.5357 -0.5357 0 -104.0514 667.6703)" style="fill:#63513D; font-family:'ArialMT'; font-size:17.0064px;">l</text>
			
				<text transform="matrix(0 -0.5357 -0.5357 0 -104.0514 665.4072)" style="fill:#63513D; font-family:'ArialMT'; font-size:17.0064px;">é</text>
			
				<text transform="matrix(0 -0.5357 -0.5357 0 -104.0514 660.561)" style="fill:#63513D; font-family:'ArialMT'; font-size:17.0064px;"> </text>
			
				<text transform="matrix(0 -0.5357 -0.5357 0 -104.0514 658.265)" style="fill:#63513D; font-family:'ArialMT'; font-size:17.0064px;">–</text>
			
				<text transform="matrix(0 -0.5357 -0.5357 0 -104.0514 653.5825)" style="fill:#63513D; font-family:'ArialMT'; font-size:17.0064px;"> </text>
			
				<text transform="matrix(0 -0.5357 -0.5357 0 -104.0514 651.287)" style="fill:#63513D; font-family:'ArialMT'; font-size:17.0064px;">A</text>
			
				<text transform="matrix(0 -0.5357 -0.5357 0 -104.0514 644.7506)" style="fill:#63513D; font-family:'ArialMT'; font-size:17.0064px;">n</text>
			
				<text transform="matrix(0 -0.5357 -0.5357 0 -104.0514 639.4467)" style="fill:#63513D; font-family:'ArialMT'; font-size:17.0064px;">n</text>
			
				<text transform="matrix(0 -0.5357 -0.5357 0 -104.0514 634.1631)" style="fill:#63513D; font-family:'ArialMT'; font-size:17.0064px;">u</text>
			
				<text transform="matrix(0 -0.5357 -0.5357 0 -104.0514 628.7561)" style="fill:#63513D; font-family:'ArialMT'; font-size:17.0064px;">a</text>
			
				<text transform="matrix(0 -0.5357 -0.5357 0 -104.0514 623.97)" style="fill:#63513D; font-family:'ArialMT'; font-size:17.0064px;">l</text>
			
				<text transform="matrix(0 -0.5357 -0.5357 0 -104.0514 621.8472)" style="fill:#63513D; font-family:'ArialMT'; font-size:17.0064px;"> </text>
			
				<text transform="matrix(0 -0.5357 -0.5357 0 -104.0514 619.5517)" style="fill:#63513D; font-family:'ArialMT'; font-size:17.0064px;">R</text>
			
				<text transform="matrix(0 -0.5357 -0.5357 0 -104.0514 613.484)" style="fill:#63513D; font-family:'ArialMT'; font-size:17.0064px;">e</text>
			
				<text transform="matrix(0 -0.5357 -0.5357 0 -104.0514 608.5802)" style="fill:#63513D; font-family:'ArialMT'; font-size:17.0064px;">v</text>
			
				<text transform="matrix(0 -0.5357 -0.5357 0 -104.0514 603.7539)" style="fill:#63513D; font-family:'ArialMT'; font-size:17.0064px;">i</text>
			
				<text transform="matrix(0 -0.5357 -0.5357 0 -104.0514 601.5149)" style="fill:#63513D; font-family:'ArialMT'; font-size:17.0064px;">e</text>
			
				<text transform="matrix(0 -0.5357 -0.5357 0 -104.0514 596.5991)" style="fill:#63513D; font-family:'ArialMT'; font-size:17.0064px;">w</text>
			
				<text transform="matrix(0 -0.5357 -0.5357 0 -104.0514 589.1289)" style="fill:#63513D; font-family:'ArialMT'; font-size:17.0064px;"> </text>
			
				<text transform="matrix(0 -0.5357 -0.5357 0 -104.0514 586.8329)" style="fill:#63513D; font-family:'ArialMT'; font-size:17.0064px;">2</text>
			
				<text transform="matrix(0 -0.5357 -0.5357 0 -104.0514 581.6833)" style="fill:#63513D; font-family:'ArialMT'; font-size:17.0064px;">0</text>
			
				<text transform="matrix(0 -0.5357 -0.5357 0 -104.0514 576.7272)" style="fill:#63513D; font-family:'ArialMT'; font-size:17.0064px;">1</text>
			
				<text transform="matrix(0 -0.5357 -0.5357 0 -104.0514 571.9557)" style="fill:#63513D; font-family:'ArialMT'; font-size:17.0064px;">6</text>
		</g>
	</g>
</g>
</svg>
